<?xml version="1.0" standalone="no"?>
<!DOCTYPE svg PUBLIC "-//W3C//DTD SVG 20010904//EN"
 "http://www.w3.org/TR/2001/REC-SVG-20010904/DTD/svg10.dtd">
<svg version="1.0" xmlns="http://www.w3.org/2000/svg"
 width="600.000000pt" height="573.000000pt" viewBox="0 0 600.000000 573.000000"
 preserveAspectRatio="xMidYMid meet">

<g transform="translate(0.000000,573.000000) scale(0.100000,-0.100000)"
fill="#000000" stroke="none">
<path d="M740 5691 c0 -22 5 -43 10 -46 6 -4 10 -23 10 -43 0 -20 5 -64 11
-97 6 -33 12 -79 13 -102 0 -23 4 -45 9 -49 4 -4 7 -17 7 -29 0 -12 3 -25 7
-29 4 -4 8 -24 9 -44 1 -20 10 -73 22 -117 11 -44 22 -96 25 -115 3 -19 13
-55 22 -79 18 -49 16 -87 -3 -83 -7 1 -18 -9 -24 -23 -10 -23 -8 -29 20 -56
18 -17 29 -36 25 -45 -3 -8 2 -25 10 -38 12 -18 15 -45 11 -126 -2 -57 -6
-105 -8 -107 -2 -2 0 -20 4 -39 5 -23 4 -34 -4 -34 -7 0 -7 -3 -1 -8 6 -4 10
-23 11 -42 0 -19 3 -58 7 -87 4 -29 2 -76 -4 -105 -6 -29 -12 -69 -15 -88 -19
-141 -153 -517 -221 -619 -10 -14 -18 -28 -18 -31 -1 -10 -58 -94 -74 -110 -9
-8 -43 -36 -76 -60 -33 -25 -65 -49 -71 -55 -13 -13 -45 -35 -109 -78 -27 -18
-100 -69 -161 -113 -60 -43 -127 -88 -148 -99 l-37 -20 4 -225 c3 -142 12
-295 26 -415 13 -104 26 -269 30 -366 5 -135 11 -180 23 -198 16 -23 14 -55
-7 -81 -18 -23 -75 -132 -75 -145 0 -6 9 -18 20 -27 22 -20 20 -76 -5 -115
-10 -15 -15 -48 -15 -99 0 -67 2 -75 15 -64 9 7 23 29 32 49 9 20 19 38 22 41
4 3 14 22 25 42 10 20 27 46 37 56 10 11 15 23 11 28 -4 4 -2 4 4 1 6 -4 11
-19 11 -34 0 -16 -2 -22 -4 -15 -3 6 -9 12 -13 12 -5 0 -2 -12 5 -27 9 -16 10
-30 5 -33 -5 -3 -8 -16 -5 -28 2 -13 -1 -21 -8 -19 -7 1 -11 -6 -9 -16 2 -9
-4 -20 -12 -23 -9 -3 -14 -9 -11 -14 2 -4 -18 -31 -45 -61 -57 -61 -63 -75
-58 -145 3 -45 4 -47 18 -31 35 42 132 126 154 133 10 3 23 1 29 -5 8 -8 8
-11 -2 -11 -8 0 -10 -7 -6 -20 5 -16 3 -19 -11 -13 -14 5 -16 3 -11 -11 4 -10
3 -15 -3 -11 -6 3 -15 -6 -21 -22 -8 -21 -6 -36 7 -66 10 -21 21 -40 26 -43
11 -7 6 19 -6 27 -12 9 -17 61 -5 53 5 -3 7 -10 3 -15 -3 -6 2 -19 13 -31 22
-24 21 -21 4 -41 -12 -15 -11 -17 3 -17 10 0 14 -5 11 -10 -4 -6 -2 -17 5 -25
8 -10 8 -19 1 -33 -6 -11 -7 -22 -4 -26 3 -3 0 -6 -8 -6 -11 0 -11 -2 -1 -8 9
-6 3 -18 -20 -44 -18 -20 -40 -38 -48 -40 -8 -2 -18 -7 -22 -13 -14 -20 -63 9
-74 45 -6 19 -17 35 -23 36 -6 2 -7 0 -1 -3 5 -2 10 -9 10 -14 0 -6 -4 -7 -10
-4 -17 11 -11 -7 7 -21 16 -12 16 -13 1 -8 -15 5 -16 -21 -17 -325 l0 -331
223 0 224 0 28 36 c37 46 67 94 105 171 17 35 34 63 38 63 3 0 12 15 20 33 8
17 24 44 37 59 12 16 25 37 29 48 4 12 13 19 26 17 29 -5 44 -23 32 -39 -5 -7
-11 -38 -12 -68 -1 -30 -6 -72 -11 -94 -5 -21 -6 -45 -3 -52 3 -8 -3 -26 -13
-42 -19 -28 -20 -72 -1 -84 15 -9 37 2 38 21 0 13 2 13 6 1 4 -10 10 -4 18 20
7 19 18 34 25 32 11 -2 11 0 1 12 -9 10 -9 16 -1 21 6 4 9 13 6 20 -2 7 4 15
15 18 12 3 17 11 13 21 -3 8 -2 21 2 28 5 7 9 18 9 23 0 6 8 22 18 37 10 15
16 32 12 38 -3 5 -2 25 4 43 6 17 18 57 27 87 9 30 22 58 28 62 22 15 57 8 81
-16 21 -21 23 -29 15 -51 -26 -69 1 -143 84 -226 30 -30 81 -69 113 -88 77
-46 103 -70 103 -97 0 -52 4 -54 127 -54 73 0 112 4 108 10 -3 6 -1 10 4 10 6
0 11 -4 11 -10 0 -5 14 -10 30 -10 27 0 30 3 31 33 1 17 1 38 0 45 -1 8 3 19
8 26 6 7 13 39 16 72 6 65 16 77 60 68 17 -4 47 -8 69 -9 67 -5 82 -19 84 -79
1 -73 39 -156 72 -156 4 0 32 25 61 56 69 71 85 80 108 60 24 -22 41 -20 99
10 51 26 133 34 212 19 33 -6 39 -3 97 57 40 41 77 92 105 148 24 47 51 86 59
88 21 4 51 -74 51 -132 0 -64 17 -74 70 -43 24 14 66 46 93 72 28 26 63 54 80
63 16 8 52 32 80 53 29 22 64 39 84 41 33 3 35 2 62 -64 l27 -66 -34 -33 c-19
-18 -34 -39 -34 -47 0 -7 -5 -10 -12 -6 -6 4 -8 3 -4 -4 3 -5 0 -13 -6 -16 -7
-3 -2 -3 12 0 14 4 27 10 30 13 3 4 14 7 25 7 19 0 76 25 143 65 25 14 38 17
52 9 29 -15 97 -12 114 6 9 8 16 29 16 45 0 22 5 29 19 29 31 0 70 39 81 80
15 55 28 58 23 5 -7 -59 1 -88 38 -129 39 -45 112 -64 185 -48 28 6 75 9 105
6 87 -9 88 -8 90 191 1 94 -1 178 -3 188 -8 33 -77 85 -129 97 -47 12 -126 8
-165 -7 -14 -5 -13 0 4 33 31 60 49 136 46 190 -4 52 -4 64 -3 92 1 32 -5 61
-12 56 -4 -2 -10 5 -14 16 -4 11 -19 33 -33 47 -15 15 -25 29 -22 31 5 5 -15
17 -42 26 -11 3 -16 12 -13 27 5 23 25 52 32 45 3 -3 15 6 28 20 12 13 34 25
48 26 31 3 77 -20 77 -39 0 -7 8 -21 18 -31 21 -22 30 -68 10 -56 -10 6 -11 5
-2 -7 6 -8 14 -29 17 -47 6 -27 2 -38 -19 -59 -24 -24 -24 -27 -9 -36 9 -5 30
-6 47 -3 24 5 31 2 35 -14 6 -23 6 -23 103 -26 87 -2 140 -12 140 -27 0 -6 3
-8 6 -4 4 3 13 -1 21 -9 8 -8 19 -12 24 -9 5 4 9 1 9 -4 0 -6 6 -11 14 -11 8
0 16 -5 18 -10 3 -10 123 -36 218 -46 25 -3 85 -11 135 -18 90 -14 119 -11
180 18 16 8 82 39 145 68 134 64 239 127 240 146 0 16 -48 11 -155 -18 -96
-26 -232 -47 -291 -45 -58 2 -114 26 -132 56 -11 18 -11 24 3 39 10 11 31 22
49 25 17 3 67 17 111 30 44 13 125 36 180 50 55 14 109 29 120 34 38 18 161
49 258 66 80 14 100 15 113 4 19 -15 29 -4 45 55 11 39 26 39 33 0 2 -10 9
-32 15 -47 6 -16 8 -39 5 -53 -10 -39 13 -28 26 14 15 45 48 103 68 119 9 8
44 13 83 13 45 0 70 5 78 14 13 16 11 37 -4 48 -6 5 -6 8 2 8 6 0 9 9 6 20 -4
13 2 30 16 44 l22 23 -27 32 c-22 27 -24 34 -13 47 11 13 27 15 81 12 l68 -5
0 732 c0 631 -2 737 -15 761 -19 38 -20 93 0 100 12 5 15 32 15 156 l0 149
-33 14 c-18 7 -55 37 -83 67 -27 29 -87 86 -132 127 -70 63 -88 86 -121 155
-68 141 -131 282 -165 366 -40 97 -47 108 -70 114 -27 7 -68 41 -60 49 3 3 11
4 18 1 19 -7 17 42 -4 99 -11 28 -20 61 -20 73 0 12 -9 32 -21 45 -11 13 -41
65 -66 114 -75 150 -134 256 -184 332 -61 93 -65 120 -20 150 19 13 42 23 52
23 11 0 19 5 19 11 0 8 4 8 14 0 12 -10 13 -8 9 8 -7 27 -7 27 -78 -10 -34
-17 -68 -28 -80 -25 -19 5 -48 27 -177 138 -27 22 -48 46 -48 54 0 7 -6 11
-14 8 -8 -3 -23 3 -34 14 -11 11 -23 18 -25 15 -3 -2 -27 7 -54 20 -57 29
-163 61 -171 52 -4 -3 0 -10 7 -14 11 -7 11 -10 0 -14 -10 -4 -10 -6 -1 -6 6
-1 12 -6 12 -12 0 -5 -6 -7 -12 -3 -10 6 -10 5 -1 -7 6 -8 11 -23 9 -32 -3
-20 -40 -50 -50 -39 -4 3 -11 0 -16 -8 -5 -9 -25 -15 -49 -15 -47 0 -81 30
-81 70 0 14 -5 25 -11 25 -5 0 -8 4 -5 8 3 5 -1 9 -9 9 -8 0 -15 -4 -15 -9 0
-4 -6 -8 -14 -8 -8 0 -16 -8 -18 -17 -3 -16 -5 -16 -24 3 -11 11 -26 18 -32
16 -7 -2 -12 1 -12 6 0 5 -11 12 -25 14 -13 3 -22 1 -19 -3 16 -26 -79 22
-114 58 -14 14 -162 19 -162 6 1 -5 28 -21 62 -38 34 -16 71 -38 82 -47 71
-58 95 -81 91 -88 -7 -11 40 -21 60 -14 10 4 29 18 44 32 14 14 20 22 12 17
-10 -6 -12 -4 -6 5 6 10 14 6 33 -16 13 -16 21 -22 17 -14 -4 8 4 2 19 -15 14
-16 25 -38 26 -47 0 -20 -19 -35 -29 -22 -7 10 -19 13 -56 16 -16 2 -21 6 -15
12 14 14 12 23 -3 23 -12 0 -15 -34 -8 -111 1 -4 12 -6 25 -4 29 6 48 -8 69
-48 26 -50 31 -104 13 -146 -9 -21 -20 -38 -25 -38 -13 0 -51 36 -45 43 3 3
-3 3 -13 1 -11 -3 -25 2 -32 10 -8 9 -20 16 -27 16 -14 0 -121 107 -138 138
-5 9 -12 19 -16 22 -18 14 -50 71 -45 80 3 5 22 17 41 26 44 21 41 42 -11 70
-22 13 -44 26 -50 31 -9 8 -61 33 -110 52 -29 12 -122 38 -185 51 -86 19 -506
8 -590 -15 -36 -10 -69 -21 -75 -25 -5 -4 -26 -11 -45 -15 -19 -4 -41 -11 -50
-16 -8 -4 -41 -17 -73 -29 -65 -22 -213 -94 -237 -114 -8 -7 -37 -25 -64 -40
-26 -16 -56 -34 -65 -41 -9 -8 -51 -41 -93 -74 -77 -62 -197 -184 -226 -231
-9 -14 -26 -36 -38 -50 -12 -14 -25 -36 -29 -50 -5 -22 -2 -26 19 -28 15 -1
26 2 26 8 0 5 9 7 20 5 11 -2 22 0 25 6 9 14 71 11 84 -5 15 -18 61 -27 62
-12 0 6 4 1 9 -12 10 -25 0 -96 -25 -169 -8 -24 -13 -49 -10 -54 4 -5 2 -9 -3
-9 -4 0 -19 -23 -31 -51 -36 -79 -86 -83 -144 -11 -10 12 -22 20 -27 17 -12
-8 -72 65 -68 83 4 19 51 46 56 32 5 -13 32 15 32 32 0 8 -13 27 -30 43 -16
16 -28 31 -25 33 2 3 -1 14 -7 26 -10 18 -9 19 4 9 12 -10 15 -10 15 2 0 9
-11 18 -23 21 -18 5 -21 10 -14 22 5 10 16 40 25 67 19 63 105 180 196 268 38
37 72 67 76 67 3 0 27 19 53 43 114 102 236 175 440 265 21 9 10 11 -61 11
-65 1 -90 -3 -99 -14 -7 -8 -17 -15 -22 -15 -11 0 -80 -31 -88 -39 -11 -13
-70 -51 -78 -51 -4 0 -33 -20 -63 -45 -30 -24 -80 -66 -112 -92 -32 -27 -93
-86 -135 -132 -42 -47 -94 -101 -115 -122 -20 -20 -37 -39 -37 -43 0 -9 -73
-121 -81 -124 -4 -2 -6 -9 -3 -16 3 -9 -17 -17 -66 -26 -86 -16 -98 -28 -76
-74 23 -48 21 -52 -26 -74 -53 -25 -118 -32 -179 -20 l-46 9 9 60 c4 33 13 69
19 80 6 11 8 27 5 34 -3 8 -1 17 4 20 4 3 18 34 30 70 27 82 43 91 105 65 36
-15 64 -18 68 -7 2 6 -3 29 -11 51 -9 24 -15 79 -16 133 l-1 92 53 77 53 77
-12 53 c-7 29 -15 57 -19 63 -4 8 -62 11 -181 9 -154 -3 -171 -5 -144 -16 52
-23 103 -84 112 -132 14 -82 6 -99 -59 -135 -36 -20 -35 -40 2 -54 40 -13 38
-36 -8 -102 -21 -30 -46 -72 -56 -93 -21 -44 -83 -111 -171 -182 -84 -68 -87
-71 -112 -78 -23 -7 -23 -7 -17 81 8 101 -2 122 -50 103 -26 -9 -56 -5 -56 10
0 16 33 71 61 101 46 49 37 69 -41 90 -87 23 -130 41 -130 55 0 6 24 27 53 45
42 28 53 40 55 65 3 33 31 51 155 103 54 23 56 37 9 60 -17 9 -32 22 -32 29 0
6 1 12 3 12 1 0 36 3 77 6 87 6 100 10 100 24 0 7 -96 10 -285 10 l-285 0 0
-39z m3971 -178 c66 -15 67 -16 106 -77 43 -67 59 -111 43 -121 -19 -12 -79
24 -140 84 -34 34 -66 61 -72 61 -5 0 -6 6 -2 13 4 6 4 9 -1 5 -11 -10 -42 8
-55 32 -10 19 -8 20 22 19 18 -1 63 -8 99 -16z m206 -245 c23 -26 43 -61 43
-77 0 -23 -30 -10 -57 24 -46 58 -34 105 14 53z m-291 -115 c2 -77 -18 -90
-61 -38 -18 21 -35 50 -37 65 -4 24 -2 25 47 25 l50 0 1 -52z m-235 -172 c11
-18 19 -44 19 -60 0 -24 -4 -28 -30 -29 -16 0 -30 5 -31 11 -1 7 -5 -4 -10
-23 -5 -19 -6 -48 -3 -65 l6 -30 -20 25 c-24 31 -65 120 -58 127 2 3 0 17 -5
32 -9 24 -8 25 6 7 17 -23 20 -14 5 15 -8 15 -8 19 2 17 7 -2 15 -9 18 -16 5
-11 9 -10 20 4 9 11 10 15 3 10 -7 -4 -13 -2 -13 3 0 6 9 11 21 11 13 0 18 4
13 12 -4 6 3 4 15 -5 13 -8 32 -29 42 -46z m-431 23 c0 -2 -9 -8 -20 -14 -15
-8 -18 -8 -14 3 4 11 34 21 34 11z m20 -14 c-10 -6 -11 -10 -2 -10 6 0 12 -5
12 -11 0 -8 -5 -8 -15 1 -16 13 -11 30 8 30 7 0 6 -4 -3 -10z m-15 -39 c-6 -5
-25 10 -25 20 0 5 6 4 14 -3 8 -7 12 -15 11 -17z m99 20 c-7 -8 -54 -9 -49 -1
2 3 15 6 29 6 14 0 23 -2 20 -5z m79 -49 c23 -53 48 -153 41 -164 -9 -14 -22
-9 -27 11 -2 11 -17 22 -35 25 -29 7 -29 9 -26 54 5 67 6 76 4 87 -1 6 -2 18
-1 28 2 28 21 10 44 -41z m-2248 20 c2 -7 0 -10 -5 -7 -6 3 -10 1 -10 -4 0 -6
5 -11 10 -11 15 0 12 -39 -4 -55 -10 -11 -16 -11 -26 -2 -10 9 -11 9 -6 0 11
-20 -1 -15 -24 9 -24 26 -25 45 -4 69 19 21 61 21 69 1z m2165 -8 c0 -8 -19
-13 -24 -6 -3 5 1 9 9 9 8 0 15 -2 15 -3z m-76 -22 c3 -5 -1 -9 -9 -9 -8 0
-12 4 -9 9 3 4 7 8 9 8 2 0 6 -4 9 -8z m-254 -22 c0 -5 -5 -10 -11 -10 -5 0
-7 5 -4 10 3 6 8 10 11 10 2 0 4 -4 4 -10z m220 -5 c0 -7 7 -18 15 -22 8 -5
16 -20 17 -33 2 -14 14 -33 26 -44 16 -12 20 -21 12 -26 -6 -4 -12 -17 -13
-28 -1 -12 -4 -22 -8 -22 -11 0 -51 108 -44 119 3 6 2 11 -3 11 -5 0 -12 14
-14 30 -3 17 -1 30 4 30 4 0 8 -7 8 -15z m-200 -51 c0 -8 5 -12 10 -9 6 3 10
4 10 1 0 -3 -9 -10 -19 -16 -14 -7 -22 -7 -27 2 -5 7 -3 8 6 3 10 -6 12 -1 8
18 -3 15 -1 24 3 21 5 -3 9 -12 9 -20z m125 -25 c9 -17 14 -36 12 -42 -4 -10
-37 51 -37 68 0 13 11 2 25 -26z m-421 -47 c31 -61 57 -264 35 -277 -6 -4 -31
41 -34 60 -1 14 -28 6 -38 -11 -11 -19 -36 -18 -44 2 -3 8 -12 13 -20 9 -12
-4 -14 0 -9 17 3 13 6 34 7 48 0 14 3 20 5 13 3 -7 12 -9 21 -6 12 5 14 3 8
-8 -8 -12 -6 -12 8 -1 9 8 21 11 27 7 6 -4 10 4 10 19 0 14 -5 26 -11 26 -6 0
-9 6 -6 13 2 6 -3 21 -12 31 -9 11 -10 16 -4 12 9 -5 12 1 9 23 -2 17 1 31 5
31 5 0 8 3 8 8 -5 32 15 23 35 -16z m292 17 c3 -5 1 -9 -4 -9 -5 0 -9 -7 -9
-15 0 -11 4 -12 14 -3 10 8 12 7 8 -4 -4 -9 1 -18 10 -22 9 -3 14 -10 10 -15
-3 -5 -1 -12 3 -15 11 -7 3 -55 -13 -79 -10 -14 -14 -15 -22 -5 -16 22 -46
136 -40 152 4 9 2 16 -4 16 -6 0 -8 4 -5 9 7 10 44 3 52 -10z m-399 -122 c0
-8 -6 -14 -14 -14 -9 0 -10 4 -2 14 6 7 12 13 14 13 1 0 2 -6 2 -13z m-1745
-16 c8 -1 5 -22 -8 -45 -13 -22 -47 -18 -52 7 -6 31 6 47 30 43 13 -3 26 -5
30 -5z m302 -42 c8 -39 8 -137 0 -166 -5 -17 -9 -19 -19 -10 -7 7 -11 15 -9
18 2 4 -3 20 -11 35 -18 35 -19 64 -3 115 14 47 33 50 42 8z m1258 4 c7 -16
20 -35 29 -43 10 -8 21 -26 24 -40 7 -30 -16 -67 -34 -55 -14 8 -50 87 -57
123 -9 47 20 58 38 15z m-207 -73 c19 -36 13 -50 -16 -43 -16 4 -19 11 -14 27
4 11 7 27 7 34 2 18 6 15 23 -18z m-425 -35 c0 -24 -3 -46 -8 -49 -11 -6 -43
20 -34 29 4 4 -3 3 -14 -3 -21 -11 -34 -7 -34 10 0 4 7 8 15 8 8 0 15 4 15 8
0 4 8 17 17 29 25 31 43 18 43 -32z m-480 0 c0 -30 -17 -52 -30 -39 -11 11
-20 70 -13 78 10 10 43 -20 43 -39z m134 -19 c-13 -35 -30 -4 -17 34 4 13 6
13 14 -2 5 -9 6 -23 3 -32z m133 23 c14 -14 6 -39 -12 -39 -15 0 -28 27 -19
41 7 12 18 11 31 -2z m500 -5 c14 -14 14 -17 0 -32 -19 -19 -23 -16 -32 21 -8
31 7 36 32 11z m1607 -811 c3 -4 12 -8 19 -9 50 -10 63 -15 72 -27 6 -8 15
-12 22 -10 6 2 15 -1 19 -8 5 -8 3 -10 -7 -4 -8 5 -4 -3 7 -16 27 -31 27 -53
-3 -85 -12 -14 -23 -29 -23 -33 0 -10 -35 -21 -67 -21 -13 0 -23 -4 -23 -8 0
-4 -13 -8 -30 -7 -16 0 -30 5 -30 12 0 6 -11 10 -27 8 -31 -3 -75 14 -67 26 2
5 -4 14 -16 21 -12 8 -20 23 -20 40 0 16 -5 28 -11 28 -6 0 4 15 23 34 18 19
36 32 40 30 4 -2 9 0 13 6 3 5 17 10 30 10 13 0 27 5 30 10 7 11 38 13 49 3z
m-1644 -375 c0 -4 10 -8 22 -8 12 0 19 -3 15 -6 -7 -7 15 -34 23 -29 13 8 7
-35 -6 -45 -7 -7 -11 -16 -8 -21 3 -5 -4 -9 -16 -9 -11 0 -23 -7 -26 -15 -4
-8 -12 -15 -20 -15 -8 0 -14 -4 -14 -8 0 -9 -54 -7 -87 3 -13 4 -23 11 -23 15
0 4 -9 17 -20 30 -22 25 -26 40 -10 40 6 0 9 6 8 13 -2 6 5 11 14 11 10 -1 16
2 13 6 -6 10 41 34 53 26 6 -3 14 -1 18 5 5 8 3 9 -6 4 -8 -5 -11 -4 -7 2 7
12 77 13 77 1z m1693 -333 c-3 -9 -8 -14 -10 -11 -3 3 -2 9 2 15 9 16 15 13 8
-4z m163 -14 c-7 -10 16 -21 43 -21 19 0 34 -28 93 -170 21 -52 36 -101 33
-109 -3 -8 3 -24 14 -35 10 -12 33 -61 50 -111 37 -103 67 -171 91 -202 9 -12
17 -42 18 -66 1 -25 9 -61 17 -81 8 -19 15 -47 15 -62 0 -30 -23 -82 -48 -110
-9 -11 -48 -60 -85 -111 -61 -83 -85 -130 -101 -204 -6 -30 -45 -43 -150 -54
-36 -3 -79 -17 -115 -35 -31 -17 -62 -30 -70 -30 -8 0 -23 -8 -34 -18 -12 -9
-17 -11 -12 -3 5 9 3 12 -6 9 -29 -10 -24 -30 42 -173 5 -11 11 -34 12 -52 1
-17 5 -29 9 -27 4 3 6 -5 5 -16 -1 -13 -11 -23 -27 -27 -13 -4 -30 -12 -37
-19 -8 -8 -30 -11 -56 -9 -23 3 -61 6 -84 7 -24 2 -43 8 -43 13 0 6 -5 3 -10
-5 -8 -12 -10 -12 -10 -1 0 8 -3 12 -6 8 -4 -3 -19 0 -35 9 -16 8 -29 12 -29
9 0 -4 -7 1 -16 9 -8 9 -19 14 -23 12 -12 -8 -63 42 -56 54 3 6 11 7 17 4 7
-4 8 -2 4 5 -9 14 2 53 13 47 13 -8 9 28 -5 49 -8 11 -14 14 -14 8 0 -7 -7
-10 -16 -6 -18 7 -96 -26 -88 -38 3 -5 0 -9 -6 -9 -7 0 -10 7 -7 15 4 8 3 17
-2 19 -11 7 7 138 20 147 6 4 8 12 4 19 -6 9 -4 11 4 5 9 -5 12 0 9 16 -1 13
-8 24 -15 24 -6 0 -35 17 -62 39 -47 35 -98 55 -145 56 -20 0 -20 -1 12 -90
19 -51 20 -57 5 -80 -9 -13 -16 -44 -15 -69 0 -25 -2 -49 -5 -53 -2 -5 -23 5
-46 21 -45 32 -42 32 -332 47 -203 11 -203 11 -252 74 -60 76 -58 73 -66 90
-11 21 -25 44 -77 125 -71 108 -100 162 -93 169 4 3 -6 19 -21 35 -27 28 -51
66 -84 131 -9 19 -19 37 -22 40 -6 5 -27 50 -84 173 -29 63 -31 90 -4 63 9 -9
19 -16 22 -16 7 0 47 -33 85 -71 34 -33 175 -139 186 -139 4 0 -14 19 -41 42
-27 24 -73 69 -103 100 -29 32 -57 55 -62 52 -5 -3 -9 1 -9 9 0 18 -37 90 -59
115 -17 18 -23 36 -24 62 0 8 -5 18 -11 22 -12 9 -12 9 59 11 30 1 50 7 50 14
0 6 3 15 7 18 4 4 5 -4 2 -19 -3 -18 0 -26 10 -26 8 0 18 4 21 10 3 5 19 8 36
6 16 -2 32 1 35 6 4 5 15 8 25 5 10 -3 19 -1 21 4 2 6 17 12 33 14 17 2 32 5
35 6 9 4 24 7 43 8 9 0 17 5 17 11 0 5 -4 9 -9 7 -5 -1 -10 2 -10 7 -1 6 5 11
14 12 8 1 13 -1 10 -6 -15 -24 78 -6 94 17 3 6 23 16 43 23 20 8 35 17 32 21
-2 4 4 6 13 5 10 -2 39 8 64 21 26 12 53 23 61 23 14 0 50 35 43 42 -3 2 10 5
28 6 57 4 97 18 109 36 5 8 8 7 8 -1 0 -9 7 -10 24 -3 13 5 27 6 30 3 3 -4 6
-1 6 5 0 6 12 10 28 10 15 -1 34 1 42 4 64 24 198 47 234 42 9 -1 16 1 16 5 0
4 33 8 73 8 39 1 84 3 100 6 15 3 25 2 22 -3 -3 -4 5 -8 18 -8 68 -1 160 -12
171 -21 15 -12 105 -10 125 3 11 7 12 6 6 -5 -7 -12 -6 -12 7 -1 9 7 19 9 22
4 6 -10 96 -9 114 2 6 4 15 5 20 2 4 -2 16 2 27 10 10 8 15 14 11 14 -4 0 -4
5 -1 10 3 6 8 10 11 10 3 0 3 -4 0 -9z m-3324 -252 c16 -33 62 -180 72 -230 2
-13 13 -60 24 -104 11 -44 32 -140 47 -212 15 -73 31 -133 34 -133 4 0 6 -14
5 -30 -1 -17 2 -33 7 -36 5 -3 9 -20 9 -39 0 -18 7 -41 16 -49 30 -31 35 -8
20 99 -4 22 -8 65 -10 95 -2 30 -9 91 -15 135 -6 44 -13 107 -15 141 -6 73
-14 134 -26 194 -16 78 -19 151 -7 147 6 -2 26 -39 45 -83 20 -43 52 -116 73
-161 21 -45 50 -110 65 -145 14 -35 46 -102 71 -150 24 -48 46 -93 47 -100 1
-7 7 -22 13 -33 6 -11 25 -56 42 -100 32 -79 55 -115 67 -103 6 7 -18 91 -87
310 -23 70 -39 133 -37 139 3 10 118 -172 118 -186 0 -3 21 -39 46 -82 26 -43
58 -98 72 -123 13 -25 35 -56 47 -70 12 -14 38 -47 56 -75 79 -116 242 -325
303 -387 69 -71 93 -85 82 -45 -11 36 -12 46 -1 44 6 -1 9 -6 7 -10 -1 -5 1
-6 6 -4 4 3 54 -39 110 -92 101 -96 103 -99 97 -133 -6 -30 -3 -38 16 -52 13
-9 31 -16 40 -16 10 0 19 -4 21 -9 2 -5 17 -11 33 -14 17 -3 48 -12 70 -22 41
-18 108 -48 113 -51 2 -1 -11 -37 -28 -79 -26 -61 -36 -75 -49 -70 -9 4 -32
12 -51 17 -19 6 -39 14 -45 18 -5 5 -28 11 -50 15 -46 9 -95 31 -95 44 0 5 -7
12 -16 15 -17 6 -62 -17 -104 -55 -56 -48 -64 -51 -106 -33 -51 22 -143 22
-222 -1 -57 -16 -64 -16 -80 -2 -18 16 -77 16 -365 1 l-97 -5 -25 58 c-48 112
-44 108 -111 111 -41 2 -64 -1 -71 -10 -6 -7 -29 -57 -53 -110 -40 -93 -44
-98 -74 -99 -55 -2 -99 -9 -201 -30 -132 -28 -141 -29 -165 -12 -23 16 -22 40
6 178 8 39 16 88 18 110 3 22 12 81 20 130 15 92 36 246 56 415 6 52 16 124
21 160 5 36 12 128 15 205 5 152 8 184 17 230 3 17 9 55 13 85 3 30 7 57 9 60
2 3 9 44 15 90 6 47 15 101 20 120 12 45 38 159 43 185 15 83 31 92 59 34z
m3657 -98 c28 -44 51 -84 51 -88 0 -5 19 -36 43 -68 85 -120 109 -190 81 -232
-21 -33 -48 -29 -66 10 -36 76 -48 106 -68 172 -18 60 -44 130 -81 220 -13 32
-21 65 -16 65 3 0 28 -36 56 -79z m519 -1078 c2 -33 0 -43 -12 -43 -19 0 -23
6 -31 53 -7 37 -6 39 16 35 20 -2 24 -9 27 -45z m-5228 -58 c0 -2 -6 -8 -13
-14 -10 -8 -14 -7 -14 2 0 8 6 14 14 14 7 0 13 -1 13 -2z m-35 -45 c3 -5 1
-10 -4 -10 -6 0 -11 5 -11 10 0 6 2 10 4 10 3 0 8 -4 11 -10z m3336 -46 c105
-49 113 -53 120 -48 12 7 4 -20 -12 -44 -9 -12 -18 -19 -21 -16 -3 3 -9 0 -14
-7 -4 -8 -3 -10 4 -5 7 4 12 2 12 -3 0 -6 -7 -11 -15 -11 -8 0 -18 -15 -23
-32 -12 -41 5 -62 50 -62 31 -1 33 -3 36 -40 2 -22 -3 -51 -10 -65 -33 -65
-55 -57 -186 74 -92 92 -115 121 -118 147 -2 18 -12 40 -23 49 -13 11 -16 20
-10 30 5 8 9 11 9 6 0 -4 19 3 43 15 82 44 89 45 158 12z m-3378 9 c-7 -2 -13
-12 -13 -20 0 -9 -3 -14 -6 -10 -10 10 4 37 18 36 10 0 10 -2 1 -6z m42 -2 c3
-5 2 -12 -3 -15 -5 -3 -9 1 -9 9 0 17 3 19 12 6z m55 -15 c0 -2 -8 -10 -17
-17 -16 -13 -17 -12 -4 4 13 16 21 21 21 13z m3410 -86 c0 -5 -5 -10 -11 -10
-5 0 -7 5 -4 10 3 6 8 10 11 10 2 0 4 -4 4 -10z m-380 -80 c0 -5 -2 -10 -4
-10 -3 0 -8 5 -11 10 -3 6 -1 10 4 10 6 0 11 -4 11 -10z m1103 -14 c2 -6 1
-21 -4 -33 -11 -31 -45 -29 -66 3 -16 25 -16 27 0 39 19 14 63 9 70 -9z
m-1016 -52 c12 3 33 -9 64 -37 25 -23 63 -55 84 -72 69 -53 74 -60 77 -92 2
-23 -3 -37 -16 -46 -17 -12 -27 -10 -87 20 -51 26 -77 46 -110 90 -23 31 -43
68 -44 83 -1 14 -6 37 -10 50 -7 22 -6 23 8 12 9 -8 24 -11 34 -8z m-3187 -64
c0 -5 -5 -10 -11 -10 -5 0 -7 5 -4 10 3 6 8 10 11 10 2 0 4 -4 4 -10z m158
-85 c3 -3 0 -5 -7 -5 -7 0 -9 -5 -5 -12 5 -9 2 -8 -10 1 -15 13 -17 12 -12
-12 3 -17 0 -26 -7 -24 -7 1 -10 -5 -9 -13 2 -8 0 -11 -4 -7 -10 10 -14 37 -6
36 18 -3 22 3 13 20 -6 10 -8 21 -5 24 6 6 44 1 52 -8z m-148 -41 c0 -8 -19
-13 -24 -6 -3 5 1 9 9 9 8 0 15 -2 15 -3z m1488 -289 c62 -145 112 -270 112
-275 0 -7 -15 -10 -35 -8 -34 3 -37 6 -68 78 l-32 75 -127 3 -126 3 -30 -78
-30 -78 -42 -3 c-32 -3 -41 0 -37 10 3 7 51 121 107 253 56 132 106 250 111
263 7 17 16 22 47 22 l38 0 112 -265z m1538 -5 c62 -146 113 -268 113 -272 1
-5 -16 -8 -36 -8 -38 0 -38 0 -70 78 l-31 77 -128 0 -128 0 -31 -77 c-30 -78
-30 -78 -67 -78 -21 0 -38 3 -38 7 0 4 51 128 112 276 l113 268 39 -3 39 -3
113 -265z m-6 224 c8 -1 32 -6 53 -9 23 -4 53 -19 75 -39 l37 -34 -5 -163 c-6
-194 -15 -206 -65 -84 l-34 80 25 15 c28 17 41 47 26 62 -6 6 -17 5 -29 -3
-38 -23 -58 2 -114 143 -18 47 -19 50 -2 43 10 -4 25 -9 33 -11z m-791 -117
c13 -7 34 -25 45 -40 19 -26 21 -45 24 -188 l3 -159 -35 0 c-34 0 -36 2 -36
31 l0 31 -34 -30 c-108 -95 -276 -14 -234 114 17 52 68 79 178 94 47 6 87 13
88 15 9 9 -21 76 -38 85 -30 16 -101 11 -147 -10 l-43 -19 0 29 c0 33 18 47
83 60 48 10 110 5 146 -13z m1543 -3 c50 -26 58 -57 58 -229 l0 -155 -35 0
c-31 0 -35 3 -35 27 0 24 -1 25 -18 10 -25 -23 -87 -47 -119 -47 -48 1 -108
34 -123 69 -18 46 -7 101 29 133 29 26 72 38 184 53 42 6 47 9 47 31 0 14 -12
36 -26 51 -22 22 -32 25 -77 21 -29 -2 -68 -12 -86 -21 -43 -22 -41 -22 -41
12 0 35 8 41 75 57 56 15 126 9 167 -12z m-2014 -20 l3 -31 34 34 c27 27 41
33 74 33 39 0 41 -2 41 -30 0 -29 -2 -30 -45 -30 -49 0 -78 -20 -95 -66 -6
-14 -10 -81 -10 -150 l0 -124 -35 0 -35 0 0 201 0 200 33 -3 c28 -3 32 -7 35
-34z m1532 -6 l0 -43 20 32 c24 41 52 55 98 51 32 -3 37 -7 40 -30 3 -27 2
-28 -46 -28 -37 0 -53 -5 -70 -22 -34 -38 -42 -73 -42 -199 l0 -119 -35 0 -35
0 0 200 0 200 35 0 c35 0 35 -1 35 -42z m417 -64 c2 -7 -20 -14 -59 -18 -75
-9 -123 -28 -162 -64 -24 -22 -28 -24 -22 -7 5 11 12 32 18 47 8 23 14 26 37
22 18 -4 42 1 67 15 41 22 115 25 121 5z m-3870 -76 c-3 -8 -6 -5 -6 6 -1 11
2 17 5 13 3 -3 4 -12 1 -19z m121 -237 c-7 -9 -13 -17 -14 -19 -1 -2 -1 8 0
21 0 15 6 23 14 20 10 -4 10 -9 0 -22z m-33 -91 c3 -5 1 -10 -4 -10 -6 0 -11
5 -11 10 0 6 2 10 4 10 3 0 8 -4 11 -10z m1442 -225 c0 -8 -4 -15 -9 -15 -4 0
-8 7 -8 15 0 8 4 15 8 15 5 0 9 -7 9 -15z"/>
<path d="M3694 2837 c-3 -9 -3 -25 1 -34 6 -16 8 -15 16 6 6 16 6 28 0 34 -7
7 -12 5 -17 -6z"/>
<path d="M3795 2555 c-27 -7 -65 -14 -84 -14 -19 -1 -75 -14 -125 -30 -50 -17
-113 -34 -140 -38 -46 -7 -50 -11 -63 -48 -8 -22 -12 -48 -11 -58 3 -16 10
-14 70 17 37 20 76 36 87 36 12 0 21 4 21 9 0 11 188 12 196 0 3 -5 14 -9 25
-9 10 0 19 -4 19 -8 0 -4 10 -8 22 -9 22 -2 98 -76 98 -96 0 -6 3 -7 7 -3 10
10 12 105 2 112 -5 3 -9 25 -9 49 0 24 -5 47 -10 50 -6 4 -8 10 -5 15 10 16
-7 40 -29 39 -11 -1 -43 -7 -71 -14z"/>
<path d="M4337 2235 l-48 -54 19 -38 c10 -21 24 -57 32 -80 7 -24 16 -43 20
-43 4 0 10 -13 14 -30 5 -29 26 -43 26 -17 0 9 2 9 9 -1 7 -11 9 -11 14 2 4 9
3 15 -1 15 -23 -4 -32 4 -30 26 2 15 9 25 18 25 25 0 41 -15 35 -32 -4 -9 -2
-19 4 -23 7 -3 8 0 5 9 -4 11 0 16 10 16 9 0 16 5 16 11 0 22 -82 269 -89 269
-4 0 -28 -25 -54 -55z"/>
<path d="M3735 2070 c-3 -6 1 -7 9 -4 18 7 21 14 7 14 -6 0 -13 -4 -16 -10z"/>
<path d="M3553 2053 c9 -2 23 -2 30 0 6 3 -1 5 -18 5 -16 0 -22 -2 -12 -5z"/>
<path d="M3678 2053 c6 -2 18 -2 25 0 6 3 1 5 -13 5 -14 0 -19 -2 -12 -5z"/>
<path d="M3608 2043 c7 -3 16 -2 19 1 4 3 -2 6 -13 5 -11 0 -14 -3 -6 -6z"/>
<path d="M4470 1990 c0 -5 5 -10 11 -10 5 0 7 5 4 10 -3 6 -8 10 -11 10 -2 0
-4 -4 -4 -10z"/>
<path d="M4441 1936 c-9 -11 -9 -16 1 -22 7 -4 10 -4 6 1 -4 4 -3 14 3 22 6 7
9 13 6 13 -2 0 -10 -6 -16 -14z"/>
<path d="M3148 1883 c7 -3 16 -2 19 1 4 3 -2 6 -13 5 -11 0 -14 -3 -6 -6z"/>
<path d="M3188 1863 c7 -3 16 -2 19 1 4 3 -2 6 -13 5 -11 0 -14 -3 -6 -6z"/>
<path d="M3235 1850 c4 -6 11 -8 16 -5 14 9 11 15 -7 15 -8 0 -12 -5 -9 -10z"/>
<path d="M3308 1833 c7 -3 16 -2 19 1 4 3 -2 6 -13 5 -11 0 -14 -3 -6 -6z"/>
<path d="M3345 1820 c3 -5 12 -7 20 -3 21 7 19 13 -6 13 -11 0 -18 -4 -14 -10z"/>
<path d="M3390 1810 c0 -5 21 -10 47 -10 55 0 54 5 -4 14 -27 4 -43 2 -43 -4z"/>
<path d="M3555 1779 c75 -25 185 -37 185 -20 0 7 4 10 9 6 5 -3 13 -1 16 5 4
7 -6 8 -32 5 -34 -6 -144 4 -213 19 -14 3 2 -3 35 -15z"/>
<path d="M4138 1786 c-10 -7 -15 -15 -12 -18 6 -7 54 15 54 25 0 11 -23 8 -42
-7z"/>
<path d="M4326 1502 c-3 -5 1 -9 9 -9 8 0 12 4 9 9 -3 4 -7 8 -9 8 -2 0 -6 -4
-9 -8z"/>
<path d="M1880 1796 c0 -2 8 -10 18 -17 15 -13 16 -12 3 4 -13 16 -21 21 -21
13z"/>
<path d="M1890 1736 c0 -2 8 -10 18 -17 15 -13 16 -12 3 4 -13 16 -21 21 -21
13z"/>
<path d="M1507 733 c-27 -68 -47 -126 -44 -129 2 -3 47 -3 100 -2 l95 3 -50
125 c-27 69 -51 126 -51 126 -1 1 -24 -54 -50 -123z"/>
<path d="M3083 834 c-4 -10 -26 -66 -49 -124 l-42 -105 95 -3 c53 -1 98 -1
101 2 4 5 -84 235 -94 245 -2 2 -7 -5 -11 -15z"/>
<path d="M2356 569 c-79 -12 -106 -30 -106 -73 0 -19 8 -40 18 -49 24 -22 100
-22 131 -1 26 19 51 71 51 109 0 28 0 28 -94 14z"/>
<path d="M3898 569 c-87 -13 -118 -32 -118 -76 0 -78 147 -87 186 -12 18 35
19 99 2 98 -7 -1 -39 -5 -70 -10z m42 -49 c0 -5 -9 -19 -21 -31 -27 -27 -94
-24 -94 6 0 12 9 22 25 26 38 11 90 10 90 -1z"/>
<path d="M5620 5720 c0 -5 -12 -10 -26 -10 -14 0 -23 -4 -19 -10 3 -5 -1 -10
-10 -10 -10 0 -13 -5 -9 -12 4 -7 4 -10 -1 -6 -4 4 -25 -2 -46 -12 -21 -11
-45 -20 -54 -20 -8 0 -15 -4 -15 -10 0 -5 -5 -10 -10 -10 -24 0 -90 -51 -90
-70 0 -11 5 -20 10 -20 6 0 10 9 10 20 0 15 7 20 25 20 14 0 25 -6 25 -12 0
-10 3 -9 9 1 5 7 13 11 19 8 5 -4 17 2 27 13 10 11 26 20 36 20 10 0 21 5 24
10 3 6 15 10 26 10 10 0 27 4 37 10 48 26 92 41 103 34 7 -4 9 -3 6 4 -4 6 12
19 38 32 25 12 45 24 45 26 0 2 -36 4 -80 4 -47 0 -80 -4 -80 -10z m-180 -130
c0 -5 -4 -10 -10 -10 -5 0 -10 5 -10 10 0 6 5 10 10 10 6 0 10 -4 10 -10z"/>
<path d="M4286 5602 c-3 -5 1 -9 9 -9 8 0 12 4 9 9 -3 4 -7 8 -9 8 -2 0 -6 -4
-9 -8z"/>
<path d="M149 5371 c-8 -9 -14 -10 -16 -4 -2 6 -13 9 -23 6 -11 -3 -18 -9 -15
-13 3 -4 -13 -10 -35 -14 -22 -3 -40 -11 -40 -17 0 -5 -4 -7 -10 -4 -6 4 -10
-35 -9 -109 0 -73 4 -116 11 -116 5 0 7 7 4 16 -3 8 -2 13 2 11 4 -2 15 4 25
15 9 10 13 18 7 18 -5 0 -2 8 8 18 11 12 20 14 24 8 4 -6 6 4 3 22 -2 18 -1
30 3 28 8 -5 33 20 26 27 -2 2 3 10 13 18 15 12 16 12 8 -1 -4 -8 6 0 23 18
16 19 34 34 39 35 4 1 7 7 5 12 -2 6 0 7 4 3 9 -9 34 10 34 26 0 17 -75 14
-91 -3z"/>
<path d="M4140 5311 c0 -6 4 -13 10 -16 6 -3 7 1 4 9 -7 18 -14 21 -14 7z"/>
<path d="M205 5290 c-3 -6 1 -7 9 -4 18 7 21 14 7 14 -6 0 -13 -4 -16 -10z"/>
<path d="M705 4949 c-16 -6 -68 -11 -115 -13 -97 -4 -148 -16 -240 -53 -80
-33 -133 -67 -136 -88 -2 -13 5 -15 39 -11 23 2 60 9 82 15 60 16 75 14 75 -9
0 -19 -18 -59 -31 -70 -8 -6 -59 -107 -60 -117 0 -22 -12 -53 -20 -53 -5 0 -6
-7 -3 -15 4 -8 1 -15 -6 -15 -6 0 -9 -4 -5 -9 3 -5 1 -12 -4 -16 -5 -3 -8 -14
-6 -25 2 -12 0 -18 -6 -15 -8 5 -10 -4 -9 -30 1 -3 -6 -13 -15 -22 -9 -8 -14
-21 -11 -29 3 -7 -12 -28 -33 -46 -42 -37 -56 -64 -38 -72 7 -3 2 -3 -10 0
-13 3 -23 1 -23 -5 0 -21 -15 -11 -28 18 -7 17 -13 53 -14 80 0 28 -5 54 -10
57 -6 4 -9 1 -6 -7 3 -8 -2 -20 -10 -28 -8 -9 -12 -28 -10 -52 2 -20 0 -35 -4
-33 -5 3 -8 -6 -8 -20 0 -14 -4 -27 -9 -31 -6 -3 -8 -14 -6 -25 2 -11 0 -20
-4 -20 -5 0 -6 -11 -3 -25 2 -14 0 -25 -6 -25 -8 0 -11 -155 -12 -525 0 -289
2 -525 5 -525 3 0 25 9 47 20 23 11 52 20 65 20 12 0 44 7 70 15 149 47 189
63 223 92 21 18 49 37 63 42 40 16 62 67 130 301 26 89 41 176 34 194 -6 15
-21 23 -102 55 -105 41 -145 75 -151 131 -2 17 -5 40 -8 53 -2 12 5 47 15 77
12 36 18 81 18 130 -1 41 2 85 5 98 6 26 47 104 60 113 5 4 5 12 1 19 -5 9 -4
11 3 6 7 -4 12 -2 12 3 0 6 6 11 13 11 19 0 50 32 97 100 28 42 68 89 125 150
51 56 67 83 58 106 -4 11 -2 15 4 11 10 -6 10 6 1 78 -6 42 -28 51 -83 34z
m-245 -400 c0 -5 -4 -9 -8 -9 -5 0 -9 7 -9 15 0 8 4 12 9 9 4 -3 8 -9 8 -15z
m-34 -31 c-16 -80 -110 -231 -130 -210 -3 3 -6 -2 -6 -12 0 -9 -5 -14 -10 -11
-6 4 -8 10 -5 15 3 5 1 19 -4 33 -7 18 -6 30 5 46 8 11 13 21 9 21 -3 0 8 14
25 31 16 18 30 36 30 40 0 5 6 9 13 9 17 0 68 45 60 54 -3 3 -1 6 6 6 6 0 10
-9 7 -22z m-353 -163 c-3 -9 -8 -14 -10 -11 -3 3 -2 9 2 15 9 16 15 13 8 -4z"/>
<path d="M2060 4726 c0 -9 -4 -15 -9 -12 -14 9 -6 -23 9 -37 12 -10 12 -9 1 5
-10 14 -9 18 6 27 14 8 16 12 6 22 -11 11 -13 10 -13 -5z"/>
<path d="M3876 1222 c-3 -5 1 -9 9 -9 8 0 12 4 9 9 -3 4 -7 8 -9 8 -2 0 -6 -4
-9 -8z"/>
<path d="M5455 1073 c-26 -5 -72 -40 -64 -48 4 -3 30 5 58 18 28 13 48 26 45
30 -4 4 -10 6 -13 6 -3 -1 -15 -4 -26 -6z"/>
<path d="M5840 966 c-19 -7 -39 -14 -45 -15 -22 -4 -152 -44 -187 -58 -53 -21
-55 -39 -5 -70 23 -14 48 -32 55 -40 19 -19 52 -15 88 10 103 72 194 154 194
174 0 17 -53 16 -100 -1z"/>
<path d="M4130 711 c0 -5 7 -15 17 -22 15 -13 15 -12 4 9 -12 23 -21 28 -21
13z"/>
<path d="M4116 672 c-3 -5 1 -9 9 -9 8 0 12 4 9 9 -3 4 -7 8 -9 8 -2 0 -6 -4
-9 -8z"/>
<path d="M5265 552 c-72 -37 -131 -74 -133 -83 -1 -9 8 -20 23 -27 22 -10 33
-8 75 13 27 14 53 25 58 25 5 0 42 14 81 32 63 29 71 36 71 60 0 22 -25 51
-42 47 -2 0 -61 -30 -133 -67z"/>
<path d="M4145 475 c-34 -33 -34 -83 0 -115 54 -51 145 -15 145 57 0 47 -37
83 -85 83 -25 0 -44 -8 -60 -25z m95 -29 c30 -37 -10 -83 -57 -65 -25 9 -31
47 -11 67 16 16 53 15 68 -2z"/>
<path d="M4333 478 c-30 -34 -34 -55 -19 -92 35 -84 166 -55 166 36 0 68 -101
106 -147 56z m95 -30 c19 -19 14 -45 -10 -62 -29 -20 -34 -20 -58 4 -24 24
-25 34 -4 54 18 19 55 21 72 4z"/>
<path d="M4532 493 c-7 -3 -19 -18 -28 -35 -28 -54 2 -113 62 -124 29 -5 34
-10 34 -34 0 -40 -29 -33 -59 13 -38 58 -98 48 -88 -14 7 -50 -11 -127 -34
-139 -45 -25 -4 -80 59 -80 32 0 157 -53 168 -72 6 -9 74 -11 74 -2 0 3 -11
20 -25 38 -29 39 -32 61 -8 75 25 14 63 -9 115 -69 38 -45 48 -51 77 -48 32 3
32 3 14 23 -33 36 -103 127 -103 134 0 4 6 15 13 25 29 39 104 -21 210 -167
10 -14 23 -18 57 -15 l43 3 -59 70 c-32 39 -64 76 -71 83 -37 38 -40 106 -8
155 14 22 14 26 -2 45 -10 12 -31 24 -48 26 -34 6 -92 28 -146 56 -34 18 -79
17 -79 -1 0 -5 7 -27 16 -50 15 -35 15 -42 2 -55 -17 -17 -48 -9 -48 12 0 8
-4 14 -10 14 -6 0 -5 9 1 24 25 55 -17 117 -78 115 -21 0 -44 -3 -51 -6z m90
-59 c11 -23 10 -29 -11 -45 -13 -11 -27 -19 -31 -19 -4 0 -18 8 -31 19 -21 16
-22 22 -11 45 9 20 19 26 42 26 23 0 33 -6 42 -26z"/>
<path d="M4065 20 l-50 -18 88 -1 c79 -1 88 1 85 17 -5 24 -61 25 -123 2z"/>
</g>
</svg>
