<?xml version="1.0" standalone="no"?>
<!DOCTYPE svg PUBLIC "-//W3C//DTD SVG 20010904//EN"
 "http://www.w3.org/TR/2001/REC-SVG-20010904/DTD/svg10.dtd">
<svg version="1.0" xmlns="http://www.w3.org/2000/svg"
 width="305.000000pt" height="305.000000pt" viewBox="0 0 305.000000 305.000000"
 preserveAspectRatio="xMidYMid meet">

<g transform="translate(0.000000,305.000000) scale(0.100000,-0.100000)"
fill="#000000" stroke="none">
<path d="M1612 2944 c-34 -8 -185 -156 -277 -271 -83 -104 -130 -184 -122
-206 2 -7 61 -27 130 -46 l126 -34 148 141 c218 207 353 315 423 337 34 11 14
19 -118 49 -107 25 -263 40 -310 30z"/>
<path d="M1925 2699 c-184 -139 -355 -290 -355 -314 0 -18 98 -107 154 -140
l49 -29 51 27 c79 42 215 148 288 225 80 85 151 186 146 210 -4 23 -154 112
-187 112 -17 -1 -69 -33 -146 -91z"/>
<path d="M739 2363 c-57 -65 -106 -120 -109 -123 -16 -16 -178 -209 -242 -290
-95 -120 -198 -269 -232 -338 -45 -90 -33 -162 26 -162 41 0 145 45 398 173
284 143 345 167 421 167 l49 0 0 -54 c0 -29 -6 -91 -14 -137 -8 -46 -24 -148
-36 -226 l-22 -141 -102 -6 c-55 -3 -229 -8 -385 -10 -171 -3 -288 -9 -296
-16 -19 -16 -120 -217 -150 -300 -20 -54 -28 -95 -29 -148 -1 -66 1 -76 23
-93 13 -10 38 -19 56 -19 18 0 152 29 299 65 147 36 295 72 329 79 546 120
559 124 613 205 30 46 40 109 48 301 15 340 85 726 151 827 25 38 30 107 11
157 -24 63 -55 81 -141 81 -68 0 -76 -3 -338 -123 -148 -67 -272 -122 -278
-122 -15 0 -11 36 25 208 19 89 32 162 31 162 -2 0 -50 -53 -106 -117z"/>
<path d="M2595 1592 c-67 -42 -225 -240 -225 -282 0 -12 18 -21 73 -33 39 -10
75 -17 80 -17 4 0 62 52 130 116 67 63 148 133 181 155 34 23 52 41 45 43 -50
17 -104 27 -174 32 -68 5 -85 3 -110 -14z"/>
<path d="M2830 1459 c-86 -66 -230 -198 -230 -210 0 -15 71 -77 102 -90 24
-10 34 -8 71 15 102 59 257 218 257 262 0 18 -87 74 -114 73 -12 0 -50 -23
-86 -50z"/>
<path d="M2038 1213 c-190 -219 -340 -424 -368 -504 -18 -51 -9 -69 37 -69 29
0 90 26 249 106 168 86 219 107 255 108 l44 1 -3 -65 c-3 -64 -31 -282 -37
-288 -2 -3 -371 -19 -493 -22 -17 0 -107 -191 -119 -250 -5 -25 -6 -58 -3 -75
10 -57 27 -55 386 33 181 44 346 84 367 88 44 8 82 35 103 75 10 20 19 95 29
232 16 231 33 334 77 464 29 86 30 94 17 129 -28 75 -104 70 -286 -17 -70 -33
-145 -67 -165 -74 -38 -14 -38 -14 -38 13 1 15 9 67 20 117 10 49 17 91 16 93
-2 1 -41 -42 -88 -95z"/>
</g>
</svg>
