<?xml version="1.0" standalone="no"?>
<!DOCTYPE svg PUBLIC "-//W3C//DTD SVG 20010904//EN"
 "http://www.w3.org/TR/2001/REC-SVG-20010904/DTD/svg10.dtd">
<svg version="1.0" xmlns="http://www.w3.org/2000/svg"
 width="860.000000pt" height="860.000000pt" viewBox="0 0 860.000000 860.000000"
 preserveAspectRatio="xMidYMid meet">
<metadata>
Created by potrace 1.14, written by Peter Selinger 2001-2017
</metadata>
<g transform="translate(0.000000,860.000000) scale(0.100000,-0.100000)"
fill="#000000" stroke="none">
<path d="M3208 7160 c-9 -5 -21 -25 -26 -43 -17 -55 -47 -254 -61 -400 -7 -80
13 -619 28 -759 6 -54 11 -122 11 -151 0 -35 11 -87 31 -143 17 -49 30 -97 30
-106 0 -9 -11 -34 -25 -55 -14 -21 -52 -103 -86 -183 -33 -80 -65 -155 -70
-167 -21 -49 -29 -69 -42 -108 -15 -48 -38 -94 -38 -79 0 14 28 193 34 219 61
248 60 273 -4 120 -19 -44 -38 -84 -42 -89 -4 -6 -8 -16 -8 -24 0 -8 -8 -26
-19 -40 -10 -15 -31 -49 -46 -77 -15 -27 -57 -80 -93 -117 -36 -37 -63 -70
-60 -73 15 -15 93 41 145 105 32 39 61 70 66 70 6 0 7 -39 3 -92 -3 -51 -10
-192 -15 -313 -9 -232 -14 -261 -69 -374 -15 -30 -37 -58 -50 -64 -17 -8 -22
-17 -19 -34 5 -27 -21 -69 -123 -198 -88 -112 -141 -188 -168 -241 -39 -77
-68 -81 -137 -18 -22 20 -58 48 -79 62 -65 40 -241 226 -286 299 -22 37 -52
83 -65 101 -13 18 -34 63 -46 100 -12 37 -28 76 -34 87 -31 51 -70 310 -67
444 2 112 33 239 86 355 20 43 36 86 36 96 0 28 122 202 232 333 32 37 58 76
58 86 0 10 38 59 85 109 47 49 85 93 85 97 0 4 24 49 52 99 50 86 53 95 52
156 -2 97 -46 173 -117 199 -16 6 -64 11 -107 11 -125 0 -292 -69 -401 -166
-27 -24 -62 -50 -78 -59 -16 -8 -45 -36 -64 -62 -19 -26 -47 -59 -62 -73 -15
-14 -45 -51 -66 -82 -22 -32 -44 -58 -50 -58 -6 0 -21 -26 -35 -57 -14 -32
-37 -70 -50 -84 -13 -14 -51 -96 -85 -185 -33 -87 -69 -177 -79 -199 -10 -22
-22 -65 -25 -95 -4 -30 -13 -95 -22 -145 -18 -104 -19 -400 -2 -560 21 -201
69 -397 124 -505 18 -36 36 -76 40 -90 4 -14 46 -78 92 -142 102 -142 327
-364 414 -408 30 -16 61 -36 69 -45 8 -9 53 -36 100 -60 48 -24 100 -54 116
-68 16 -13 58 -37 94 -54 104 -49 142 -82 164 -141 14 -42 16 -55 6 -67 -7 -8
-18 -15 -25 -15 -30 0 -176 -99 -206 -140 -10 -14 -23 -45 -28 -70 -5 -25 -17
-79 -26 -120 -21 -97 -37 -332 -27 -390 7 -38 10 -26 16 85 8 147 22 250 38
282 12 25 28 21 28 -6 0 -10 8 -25 17 -32 15 -13 16 -11 9 21 -16 75 -18 137
-6 180 15 56 84 126 163 164 l56 28 83 -84 c60 -61 101 -92 150 -116 78 -38
234 -93 328 -115 176 -42 306 -79 321 -93 9 -8 23 -12 32 -8 9 3 25 -4 37 -16
18 -18 21 -31 18 -68 -4 -39 -36 -178 -45 -191 -4 -6 -27 22 -63 74 -33 49
-93 115 -104 115 -3 0 26 -39 64 -87 83 -104 158 -245 204 -384 86 -259 106
-357 81 -395 -28 -43 -51 -30 -162 84 -105 107 -113 112 -62 36 47 -70 89
-160 89 -193 0 -17 5 -31 11 -31 8 0 10 15 7 45 -3 24 -3 46 -1 49 3 3 22 -6
42 -19 45 -31 66 -31 96 0 28 27 32 71 14 140 -22 84 -23 99 -5 92 21 -8 20
-5 -4 40 -25 47 -28 82 -5 63 27 -22 18 12 -13 50 -45 55 -113 178 -137 247
-19 53 -21 71 -13 114 15 84 64 173 136 245 89 90 140 107 187 59 32 -31 32
-77 1 -177 -14 -42 -33 -113 -42 -157 l-17 -81 27 -102 c35 -130 52 -166 120
-258 86 -116 98 -147 98 -257 0 -73 3 -93 14 -93 9 0 14 11 14 30 0 21 9 39
26 55 l27 25 -25 0 c-21 0 -26 6 -31 34 -3 19 -12 50 -21 68 -51 113 -50 128
11 128 51 0 138 44 196 99 30 28 56 51 58 51 3 0 33 -60 68 -133 35 -72 67
-140 72 -149 11 -21 12 -62 2 -71 -8 -9 -43 -108 -43 -124 0 -7 6 -13 13 -13
15 0 57 134 57 184 0 20 -9 55 -20 76 -17 34 -18 40 -5 40 24 0 205 -87 205
-99 0 -14 23 -14 55 1 18 8 24 16 19 30 -8 25 14 78 32 78 8 0 14 -9 14 -20 0
-12 7 -20 16 -20 14 0 16 8 10 53 -3 28 -6 100 -6 160 l0 107 -38 0 c-20 0
-62 9 -92 21 -30 11 -63 23 -73 26 -10 3 -24 20 -32 39 -16 39 -66 68 -105 60
-22 -4 -35 2 -59 24 -17 17 -33 40 -35 52 -3 13 -13 64 -22 113 -9 50 -30 118
-45 152 -51 110 -38 110 72 0 142 -142 159 -162 159 -185 0 -24 26 -82 37 -82
3 0 3 18 -1 40 l-6 41 92 -70 c114 -85 199 -131 244 -131 37 0 81 19 177 77
32 19 60 34 62 32 2 -2 5 -39 6 -82 4 -87 -8 -107 -60 -107 -13 0 -38 -4 -55
-9 -17 -5 -59 -14 -94 -18 -54 -8 -65 -7 -79 9 -17 19 -43 24 -43 8 0 -5 6
-10 14 -10 9 0 16 -12 18 -27 3 -32 -7 -160 -20 -245 -9 -57 -2 -78 24 -78 8
0 10 16 7 53 -5 62 -5 58 4 172 l8 90 60 8 c79 10 165 27 192 37 26 11 40 -4
49 -51 4 -19 22 -67 42 -107 19 -40 33 -74 30 -77 -13 -13 -211 -56 -280 -62
l-78 -6 0 -43 c0 -38 4 -45 35 -64 l36 -22 23 23 c13 13 46 30 72 37 27 8 60
18 74 22 14 5 58 19 99 31 l74 23 28 -32 c33 -37 34 -33 -32 -150 -27 -48 -49
-95 -49 -104 0 -32 26 -19 47 25 l20 42 58 -3 c61 -4 58 0 39 -61 -8 -26 47
-39 79 -19 18 12 27 12 45 2 35 -18 60 -8 54 22 -2 13 -9 21 -15 17 -6 -3 -7
-1 -3 6 4 7 -5 26 -23 46 -60 69 -76 126 -61 219 14 85 58 172 130 255 75 87
139 131 190 131 74 0 92 -65 57 -195 -19 -71 -21 -139 -5 -186 11 -33 86 -151
100 -157 6 -3 64 -47 99 -76 8 -7 42 -25 75 -40 32 -16 68 -33 80 -38 12 -5
32 -8 45 -6 18 2 1 12 -64 38 -162 64 -290 189 -317 307 -13 58 -5 112 31 233
25 84 38 181 27 211 -5 13 -44 61 -87 108 -111 122 -123 151 -100 234 17 64
40 77 136 77 148 0 260 -58 312 -162 17 -33 31 -69 31 -78 0 -10 -11 -48 -25
-84 -14 -37 -25 -81 -25 -99 0 -44 -24 -154 -44 -201 -18 -42 -16 -55 4 -31
23 27 28 16 31 -70 3 -62 8 -88 19 -95 25 -15 122 -24 151 -13 21 8 35 5 80
-19 34 -18 62 -26 77 -23 17 4 22 1 22 -14 0 -11 6 -26 13 -33 8 -7 16 -20 20
-28 4 -12 6 -12 6 2 1 15 3 15 33 1 26 -14 39 -14 75 -5 57 16 61 15 68 -7 9
-29 51 -52 80 -45 30 7 23 24 -10 24 -26 0 -56 35 -49 55 3 7 17 18 32 26 15
8 56 32 92 55 36 22 77 49 93 58 15 9 39 36 53 59 69 110 137 206 149 211 8 3
28 -11 44 -30 19 -21 31 -29 31 -20 0 9 -13 31 -30 49 -16 19 -30 43 -31 53 0
15 -2 16 -7 4 -44 -96 -211 -295 -296 -352 -34 -23 -63 -44 -66 -48 -5 -7
-118 -61 -159 -77 -29 -11 -65 4 -100 41 -26 27 -23 48 11 86 13 14 36 41 52
60 15 19 78 86 139 148 60 61 106 112 102 112 -10 0 -96 -66 -140 -107 -17
-15 -68 -74 -114 -130 -68 -83 -90 -104 -117 -109 -40 -7 -92 20 -101 54 -6
25 55 219 92 292 13 25 52 77 87 115 35 39 80 88 98 110 19 22 63 68 97 102
71 70 89 75 153 43 53 -27 52 -10 -1 19 -31 18 -51 22 -80 18 -69 -9 -63 30 9
56 61 22 89 21 135 -3 46 -25 47 -19 5 19 -18 16 -31 31 -28 33 35 28 141 98
148 98 5 0 15 -12 23 -27 19 -36 120 -118 175 -144 55 -24 96 -22 48 3 -51 28
-158 149 -172 196 -12 41 -6 73 17 92 3 3 19 29 35 59 23 42 29 70 34 137 7
117 -19 193 -119 344 -135 205 -180 295 -195 390 l-7 45 76 -91 c68 -81 114
-124 132 -124 4 0 -9 19 -29 43 -40 49 -89 143 -117 226 l-19 56 6 -50 c3 -27
10 -55 16 -62 5 -7 8 -17 6 -24 -5 -15 -79 135 -116 236 -61 165 -73 268 -42
350 4 11 11 57 14 100 3 44 3 73 0 65 -3 -8 -9 -24 -14 -35 -4 -11 -13 -38
-19 -60 -6 -22 -18 -65 -26 -95 -18 -64 -106 -250 -118 -250 -5 0 -6 17 -2 38
3 21 8 81 9 133 2 52 8 105 13 119 47 116 83 249 89 325 4 56 5 59 -33 -75
-22 -77 -81 -228 -101 -258 -14 -22 -21 -24 -61 -18 -24 3 -46 8 -48 9 -1 2
12 50 31 108 37 115 56 216 37 205 -6 -4 -11 -18 -11 -31 0 -13 -9 -44 -20
-70 -11 -26 -20 -54 -20 -64 0 -9 -9 -36 -20 -59 -11 -22 -20 -47 -20 -55 0
-17 -20 -37 -37 -37 -17 0 -17 52 1 110 7 25 25 119 40 210 14 91 34 206 44
255 12 65 17 136 16 255 -1 194 -16 299 -51 355 l-25 40 7 -40 c3 -22 12 -67
19 -100 21 -95 6 -86 -28 16 -32 94 -96 227 -96 199 0 -8 16 -56 34 -107 19
-51 36 -107 38 -125 l3 -33 -100 -3 -100 -3 -18 30 c-9 16 -17 42 -17 58 0 20
-3 24 -9 14 -5 -8 -5 -27 0 -45 13 -43 11 -50 -6 -32 -8 8 -15 21 -15 29 0 22
-46 130 -66 153 -11 12 -20 28 -22 35 -1 8 -7 23 -11 34 -5 11 -15 35 -23 54
-7 19 -32 75 -55 124 -24 48 -44 103 -44 120 -1 19 -5 7 -10 -28 -24 -176 -95
-404 -188 -608 -17 -37 -31 -72 -31 -76 0 -5 -4 -11 -8 -13 -4 -1 -15 -19 -25
-38 -18 -37 -24 -19 -7 24 6 16 6 27 0 31 -6 4 -10 0 -10 -8 0 -16 -3 -23
-100 -217 -56 -111 -92 -175 -110 -190 -3 -3 -27 -36 -54 -73 -26 -38 -75 -97
-108 -133 -48 -51 -63 -62 -74 -53 -8 6 -14 15 -14 20 0 14 72 119 81 119 11
0 78 120 163 293 63 130 75 161 69 188 -4 21 -3 30 4 26 7 -4 11 2 10 16 0 12
34 123 76 247 88 260 104 316 120 425 20 128 11 130 -47 14 -28 -58 -82 -151
-120 -208 -137 -203 -461 -620 -473 -608 -2 3 16 37 41 76 43 66 67 126 29 71
-9 -14 -19 -27 -23 -30 -15 -13 -113 -145 -169 -228 -67 -98 -191 -335 -191
-364 0 -25 -8 -23 -41 13 -31 33 -34 51 -20 108 5 20 15 63 21 96 34 181 115
398 247 668 79 162 140 255 207 319 31 30 26 40 -6 11 -17 -15 -18 -15 -18 0
0 10 5 17 10 17 6 0 10 5 10 10 0 6 12 29 26 51 14 23 23 43 21 45 -4 5 -83
-94 -169 -214 -29 -40 -100 -134 -158 -210 -58 -75 -130 -173 -160 -217 -30
-44 -57 -82 -60 -85 -9 -8 -65 -98 -106 -170 -20 -36 -46 -81 -57 -100 -11
-19 -40 -73 -64 -120 -44 -84 -74 -127 -59 -85 4 11 14 40 22 65 9 25 22 60
30 78 8 17 21 49 30 70 9 20 43 93 75 161 33 68 58 126 55 128 -5 6 -168 -195
-275 -339 -47 -65 -94 -120 -104 -124 -11 -3 -26 1 -38 12 -25 23 -22 34 49
184 22 47 48 103 58 125 33 74 181 305 214 335 3 3 17 21 30 40 13 19 27 37
30 40 15 14 80 99 80 106 0 10 -35 -31 -142 -163 -49 -62 -92 -113 -93 -113
-9 0 59 119 102 179 73 104 171 215 317 360 133 133 173 192 73 109 -161 -135
-339 -326 -434 -468 -28 -42 -99 -137 -159 -211 -60 -75 -154 -198 -208 -273
-55 -75 -104 -140 -109 -143 -6 -4 -8 6 -3 28 3 19 11 36 16 37 6 2 10 8 10
14 0 6 -6 6 -15 -2 -8 -7 -15 -18 -15 -25 0 -17 -25 -26 -47 -18 -39 15 -93
57 -93 73 0 9 18 50 40 90 22 40 40 74 40 77 0 2 12 22 26 44 14 22 23 46 20
52 -2 7 -5 4 -5 -5 -1 -10 -5 -18 -11 -18 -5 0 -10 -7 -10 -15 0 -8 -4 -15 -9
-15 -5 0 -16 -15 -25 -32 -9 -18 -30 -55 -47 -83 -16 -27 -32 -58 -36 -67 -7
-22 -26 -23 -43 -2 -11 12 -9 27 10 82 113 327 231 549 447 841 10 13 24 31
32 38 7 8 11 16 9 19 -3 3 -27 -21 -54 -52 -27 -31 -53 -62 -59 -68 -51 -58
-137 -184 -196 -289 -24 -43 -50 -88 -56 -100 -11 -18 -13 -19 -13 -4 0 9 4
25 9 35 9 17 27 59 51 120 7 18 10 35 6 39 -3 3 -6 -1 -6 -10 0 -10 -3 -17 -8
-17 -4 0 -13 -15 -21 -32 -8 -18 -23 -53 -34 -78 -25 -60 -31 -74 -57 -145
-12 -33 -26 -69 -30 -80 -5 -11 -18 -54 -30 -95 -24 -81 -44 -137 -65 -185
-24 -51 -73 -187 -98 -265 -16 -50 -29 -76 -40 -78 -14 -3 -17 5 -17 47 0 76
26 237 51 311 11 36 39 103 60 148 21 46 39 86 39 88 0 5 66 148 81 176 14 28
11 35 -6 11 -14 -19 -46 -78 -109 -198 -16 -30 -22 -36 -24 -21 -2 10 1 23 7
29 6 6 11 22 11 34 0 13 6 34 14 46 27 44 96 180 96 190 0 5 -9 -2 -21 -17
-11 -14 -26 -26 -32 -26 -14 0 -37 -50 -61 -135 -10 -33 -22 -68 -27 -77 -5
-10 -9 -27 -9 -37 0 -11 -4 -22 -9 -25 -5 -3 -11 -20 -14 -38 -3 -18 -16 -76
-29 -128 -24 -91 -32 -135 -59 -298 l-12 -74 -61 7 c-42 4 -66 13 -77 26 -13
15 -18 16 -22 5 -4 -10 -20 -13 -54 -11 l-48 3 -6 54 -6 53 -3 -42 c-1 -24 -3
-46 -5 -50 -10 -39 -17 -95 -25 -188 -8 -106 -42 -386 -56 -470 l-7 -40 -8 35
c-10 47 -14 615 -5 715 4 44 11 100 16 125 22 116 33 167 40 185 4 11 22 61
40 110 84 232 261 517 452 726 34 38 66 69 70 69 4 0 -20 -44 -53 -97 -32 -54
-59 -103 -59 -110 0 -6 -4 -13 -9 -15 -4 -1 -11 -14 -15 -28 -4 -14 8 -1 26
29 152 247 349 467 484 543 102 56 243 117 289 125 65 11 62 26 -17 91 -40 32
-84 63 -98 67 -31 10 -253 135 -322 181 -27 19 -60 34 -72 34 -11 0 -52 21
-90 45 -38 25 -80 45 -94 45 -13 0 -49 14 -78 31 -29 16 -59 29 -66 28 -7 -2
-53 7 -103 19 -114 27 -195 36 -217 22z m2720 -1390 c40 -105 69 -195 87 -270
9 -41 22 -84 27 -94 15 -29 22 -440 9 -511 -6 -33 -14 -80 -16 -105 -3 -25 -9
-56 -14 -70 -5 -14 -14 -45 -21 -70 -6 -25 -16 -53 -21 -62 -5 -10 -9 -23 -9
-30 0 -6 -7 -19 -15 -28 -13 -15 -23 -16 -63 -8 -26 5 -99 13 -162 18 -169 14
-276 27 -297 38 -10 5 -67 12 -128 16 -60 4 -114 11 -118 15 -4 4 4 16 19 26
22 14 31 15 46 6 24 -15 48 -14 67 4 23 20 216 83 308 101 86 16 103 24 53 24
-37 0 -89 -9 -280 -46 -69 -13 -128 -24 -133 -24 -4 0 6 15 22 33 50 54 200
256 243 326 126 205 167 283 243 466 24 58 64 181 80 245 24 97 24 97 39 74 7
-10 22 -44 34 -74z m-432 -155 c-11 -105 -46 -239 -87 -332 -11 -24 -19 -45
-19 -49 0 -16 -195 -400 -240 -472 -45 -72 -54 -81 -67 -70 -14 11 -15 9 -9
-18 11 -48 -5 -54 -104 -39 -47 7 -87 14 -90 15 -5 2 -20 4 -102 8 -50 3 -49
16 6 134 70 150 159 273 343 476 28 30 52 44 38 22 -3 -5 -1 -10 4 -10 6 0 11
4 11 9 0 16 239 328 276 360 19 17 37 31 41 31 3 0 3 -29 -1 -65z m541 -27
c-3 -8 -6 -5 -6 6 -1 11 2 17 5 13 3 -3 4 -12 1 -19z m20 -95 c-3 -10 -5 -4
-5 12 0 17 2 24 5 18 2 -7 2 -21 0 -30z m338 -43 c20 -17 20 -76 0 -84 -9 -3
-64 -9 -123 -12 -135 -8 -152 -2 -152 60 0 23 3 46 8 50 12 13 249 1 267 -14z
m-1631 -77 c-7 -32 -22 -89 -34 -128 -54 -178 -100 -381 -100 -446 0 -51 -20
-74 -56 -65 -16 4 -49 11 -74 15 -79 15 -135 36 -138 53 -2 9 16 54 39 100
113 225 324 528 368 528 4 0 2 -26 -5 -57z m1358 -125 c-9 -9 -12 1 -11 43 l1
54 11 -43 c7 -31 7 -46 -1 -54z m277 86 c27 -6 31 -10 31 -41 l0 -34 -102 6
c-126 8 -128 9 -128 39 0 23 4 25 58 29 31 2 69 4 83 5 15 1 41 -1 58 -4z
m-220 -36 c0 -31 -1 -31 -10 -10 -5 13 -7 28 -3 33 10 16 14 9 13 -23z m224
-70 c11 -6 17 -20 17 -44 0 -44 -13 -49 -147 -57 -84 -5 -105 -3 -118 9 -18
19 -20 78 -2 92 24 20 211 20 250 0z m-2233 2 c0 -5 -12 -54 -26 -107 -15 -54
-29 -112 -31 -130 -8 -53 -26 -59 -78 -28 -28 16 -45 32 -43 42 4 18 160 231
171 232 4 1 7 -3 7 -9z m-1088 -134 c-6 -28 -16 -89 -22 -136 -11 -83 -21
-140 -42 -250 -5 -30 -25 -102 -43 -160 l-34 -105 0 106 c-1 94 14 237 34 324
10 44 71 223 91 270 14 31 19 36 22 21 2 -11 0 -43 -6 -70z m3099 -88 c12 -97
2 -300 -22 -417 -18 -93 -30 -114 -59 -107 -8 3 -37 7 -65 11 -60 8 -69 13
-57 28 14 17 40 97 68 207 13 52 29 97 35 101 8 5 8 8 0 13 -6 4 -9 12 -5 17
3 5 10 56 15 112 5 56 12 119 15 139 l6 37 30 -34 c24 -28 32 -48 39 -107z
m-3254 100 c-3 -8 -6 -5 -6 6 -1 11 2 17 5 13 3 -3 4 -12 1 -19z m812 8 c9
-10 4 -29 -21 -82 -18 -38 -35 -78 -39 -89 -7 -19 -7 -19 -8 2 -1 12 4 25 9
28 6 3 10 16 10 28 0 31 23 127 31 127 4 0 12 -6 18 -14z m2677 -21 c11 -27
-31 -322 -67 -475 -5 -25 -15 -69 -21 -97 -9 -49 -12 -53 -39 -53 l-29 0 0
165 c0 95 -4 165 -9 165 -5 0 -11 -10 -13 -22 -2 -12 -9 -24 -17 -26 -11 -4
-13 4 -7 44 10 65 11 55 -3 176 -7 59 -10 111 -7 116 3 5 45 10 93 11 48 1 89
4 92 6 9 9 22 5 27 -10z m-2579 -51 c27 -20 49 -37 51 -39 1 -1 -20 -48 -48
-104 -49 -96 -53 -101 -83 -101 -18 0 -43 3 -55 7 -21 5 -23 10 -17 42 13 73
78 231 95 231 5 0 31 -16 57 -36z m488 -66 c-25 -128 -46 -178 -63 -152 -4 6
-15 13 -24 17 -10 3 -18 14 -18 24 0 17 94 143 106 143 3 0 3 -15 -1 -32z
m-418 -20 c-3 -8 -6 -5 -6 6 -1 11 2 17 5 13 3 -3 4 -12 1 -19z m114 -28 c26
-17 49 -37 52 -43 3 -7 -1 -31 -9 -52 -8 -22 -14 -48 -14 -59 0 -17 -6 -18
-67 -12 -119 12 -143 17 -143 32 0 13 34 67 95 150 15 21 33 17 86 -16z m109
-80 c12 -8 11 -14 -7 -47 -29 -51 -49 -57 -38 -12 4 19 8 42 8 52 1 19 14 22
37 7z m155 -80 c3 -4 2 -16 -2 -25 -5 -15 -15 -17 -71 -11 -36 4 -69 9 -74 12
-10 6 3 31 31 61 l21 22 45 -25 c25 -14 47 -29 50 -34z m178 -44 c48 -12 85
-24 82 -27 -5 -5 -153 7 -192 16 -13 3 -23 12 -23 20 0 20 28 18 133 -9z
m1761 -34 c-7 -51 -25 -115 -37 -127 -6 -6 -7 -1 -3 15 4 14 9 41 12 60 3 19
7 50 10 68 7 45 24 30 18 -16z m-1551 -10 c-30 -4 -35 0 -27 21 5 15 8 15 29
-1 l23 -17 -25 -3z m-1132 -4 c3 -5 9 -57 14 -116 20 -286 20 -287 33 -287 9
0 43 73 88 184 40 102 78 187 84 191 13 8 130 -6 140 -17 4 -4 17 -98 29 -208
13 -110 27 -204 31 -209 5 -5 13 1 19 15 18 44 90 243 106 296 26 80 32 85 93
77 30 -4 52 -12 52 -19 0 -6 -34 -102 -76 -211 -79 -208 -134 -355 -134 -360
0 -1 -6 -9 -14 -17 -11 -11 -26 -12 -67 -6 -29 5 -56 12 -60 16 -7 7 -14 52
-40 258 -21 169 -24 188 -36 193 -7 2 -16 -5 -19 -15 -3 -10 -10 -27 -15 -38
-5 -11 -40 -96 -78 -190 l-68 -170 -45 -3 c-24 -2 -56 1 -70 7 -22 8 -26 17
-32 78 -3 37 -15 154 -26 258 -11 105 -23 219 -27 254 l-6 64 59 -8 c32 -4 62
-11 65 -17z m1599 -43 c0 -8 -7 -15 -15 -15 -8 0 -15 7 -15 15 0 8 7 15 15 15
8 0 15 -7 15 -15z m-2118 -129 c-6 -12 -13 -28 -16 -36 -7 -17 0 34 11 83 l8
32 3 -29 c2 -16 -1 -39 -6 -50z m1614 33 c24 -8 17 14 113 -369 38 -151 66
-279 61 -283 -4 -5 -33 -6 -64 -2 -61 8 -59 6 -81 112 -3 17 -12 36 -18 41
-11 9 -163 33 -226 36 -19 1 -30 -10 -53 -54 -16 -30 -35 -60 -41 -67 -18 -17
-117 -5 -117 14 0 13 32 76 117 231 12 23 34 61 46 85 13 23 45 83 72 132 77
144 79 146 128 139 23 -4 51 -10 63 -15z m1604 -22 c0 -23 -17 -47 -32 -47
-12 0 -10 28 4 50 17 27 28 25 28 -3z m-1111 -42 c4 -5 0 -41 -44 -385 -34
-265 -26 -243 -86 -238 -28 3 -54 9 -59 14 -4 5 10 148 33 318 l41 308 55 -6
c30 -4 57 -9 60 -11z m-2142 -37 c-3 -8 -6 -5 -6 6 -1 11 2 17 5 13 3 -3 4
-12 1 -19z m2518 -8 c224 -28 215 -25 215 -64 0 -18 -6 -39 -12 -48 -14 -16
-15 -16 -221 10 -46 6 -70 5 -76 -2 -15 -18 -25 -132 -13 -140 8 -5 215 -36
239 -36 2 0 3 -21 1 -47 l-3 -48 -70 3 c-38 1 -94 7 -124 13 -31 6 -57 7 -62
2 -5 -5 -17 -65 -27 -133 l-18 -125 -44 2 c-72 3 -73 5 -67 76 3 34 15 132 27
217 11 85 25 190 30 234 13 107 17 119 43 112 12 -3 94 -14 182 -26z m479 -70
c8 -8 -2 -102 -24 -240 -17 -104 -22 -214 -11 -242 15 -41 66 -68 127 -68 55
0 87 21 105 67 8 22 34 198 58 393 l6 55 55 -3 c30 -2 58 -6 61 -10 4 -4 1
-52 -7 -107 -7 -55 -18 -138 -24 -185 -24 -198 -54 -265 -135 -301 -76 -35
-233 -16 -303 38 -66 50 -74 73 -68 208 6 129 37 382 50 403 8 14 93 7 110 -8z
m-2988 -12 c-2 -13 -9 -50 -16 -83 -45 -238 -91 -404 -118 -425 -13 -10 -91
-158 -105 -200 -4 -10 -6 -9 -6 5 -1 26 60 272 89 358 32 96 20 101 -23 11
-21 -44 -42 -87 -48 -96 -5 -10 -9 -25 -9 -33 0 -8 -3 -15 -8 -15 -4 0 -13
-15 -21 -32 -7 -18 -21 -51 -31 -73 -9 -22 -23 -58 -29 -80 -7 -22 -16 -49
-21 -60 -26 -62 -35 -131 -35 -261 0 -143 1 -146 46 -238 10 -22 18 -41 16
-43 -4 -4 -97 93 -97 102 0 3 -9 15 -20 27 -11 12 -20 28 -20 35 0 7 -4 13
-10 13 -5 0 -10 7 -10 15 0 8 -4 23 -9 33 -17 34 -31 114 -31 182 0 158 63
295 243 528 26 35 63 89 82 120 18 31 48 71 65 87 18 17 50 56 72 88 43 60 61
72 54 35z m3683 -385 c-11 -59 -25 -116 -29 -127 -4 -12 -14 -41 -21 -66 -7
-25 -16 -49 -21 -54 -4 -6 -8 -18 -8 -27 0 -21 -66 -147 -124 -238 -43 -66
-166 -191 -189 -191 -8 0 -9 3 -1 8 29 20 134 211 134 245 0 7 11 19 25 25 28
13 45 48 50 107 2 22 12 108 21 191 l17 152 45 48 c25 27 42 41 39 30 -6 -16
-13 -46 -44 -186 -6 -24 -5 -25 15 -7 11 10 22 33 25 50 18 109 55 258 67 273
25 30 25 -108 -1 -233z m90 -21 c1 -34 34 -170 51 -209 27 -62 37 -82 68 -132
58 -91 87 -212 77 -315 -4 -39 -10 -75 -15 -81 -4 -5 -20 -39 -36 -75 -15 -36
-40 -81 -54 -100 -15 -19 -30 -42 -33 -50 -3 -9 -6 -4 -6 12 -1 15 3 29 8 32
5 3 11 20 14 38 3 18 11 60 18 93 20 95 15 255 -10 363 -23 93 -40 111 -42 44
l-1 -37 -8 38 c-16 83 -20 42 -16 -143 l5 -195 -20 75 c-11 41 -26 113 -34
160 -17 97 -20 316 -5 325 6 3 10 1 10 -6 0 -9 3 -10 10 -3 8 8 8 30 1 75 -6
35 -11 93 -10 129 l1 65 13 -35 c7 -19 14 -50 14 -68z m-3543 1 c7 -10 14 -28
14 -40 0 -12 5 -25 10 -28 14 -9 12 -25 -3 -20 -12 5 -67 86 -67 99 0 13 33 5
46 -11z m-162 -75 c16 -157 44 -287 80 -372 9 -21 16 -47 16 -57 0 -11 3 -19
8 -19 4 0 13 -15 21 -32 8 -18 22 -45 33 -60 26 -37 23 -62 -12 -91 -38 -32
-40 -56 -2 -27 l27 22 3 -67 c2 -37 0 -70 -3 -73 -9 -10 -86 72 -80 86 2 7 1
11 -4 8 -12 -8 -48 39 -81 104 -5 11 -14 29 -20 40 -5 11 -10 29 -10 40 0 11
-4 20 -9 20 -8 0 -21 79 -27 170 -5 71 33 370 47 370 4 0 10 -28 13 -62z m536
22 c0 -5 -2 -10 -4 -10 -3 0 -8 5 -11 10 -3 6 -1 10 4 10 6 0 11 -4 11 -10z
m185 -4 c50 -8 119 -17 154 -21 35 -3 83 -13 105 -20 23 -8 89 -17 146 -19 58
-3 139 -10 180 -16 41 -5 111 -15 155 -20 44 -6 114 -15 155 -21 41 -5 109
-14 150 -19 41 -4 109 -13 150 -19 175 -24 239 -33 305 -41 134 -16 230 -29
300 -40 74 -11 193 -26 288 -37 32 -3 57 -11 56 -17 0 -16 -106 -102 -206
-168 -126 -84 -99 -78 117 25 36 17 82 42 103 55 45 30 56 24 30 -15 -11 -15
-53 -86 -94 -158 -40 -71 -83 -137 -94 -147 -11 -9 -54 -34 -95 -55 -70 -35
-80 -38 -155 -36 -49 1 -95 8 -119 18 -47 20 -56 14 -21 -13 26 -21 183 -62
236 -62 16 0 29 -3 29 -6 0 -4 -15 -22 -32 -40 -41 -42 -80 -44 -158 -9 l-55
25 39 -34 c21 -19 47 -36 59 -38 38 -6 27 -23 -43 -71 -89 -61 -374 -187 -610
-269 -112 -39 -148 -35 -277 33 -54 29 -110 58 -125 66 -16 8 -28 17 -28 20 0
3 14 21 31 41 39 44 25 52 -30 18 -22 -14 -44 -26 -49 -26 -4 0 -43 23 -86 50
-74 49 -96 54 -96 25 0 -18 -26 -26 -38 -12 -11 14 -46 117 -41 121 2 2 13 8
24 14 17 10 15 11 -21 12 -33 0 -50 8 -95 46 -98 83 -137 133 -91 120 44 -13
140 -26 186 -25 l51 0 -89 30 c-94 32 -194 91 -261 156 -55 52 -93 121 -135
243 -12 36 -26 74 -30 85 -20 48 -33 95 -28 100 3 3 32 -21 65 -53 86 -84 172
-148 254 -188 70 -35 73 -35 143 -26 l71 9 -61 2 c-80 1 -114 17 -210 94 -86
69 -170 181 -218 290 l-25 57 22 0 c12 0 63 -6 112 -14z m-570 -65 c11 -14 19
-30 17 -34 -1 -5 4 -14 11 -21 24 -18 99 -166 93 -182 -3 -8 1 -14 9 -14 22 0
45 -65 45 -124 0 -47 -4 -55 -39 -90 -37 -36 -40 -37 -49 -19 -6 11 -12 60
-14 110 -2 50 -5 90 -9 88 -3 -2 -11 17 -18 43 -6 26 -17 65 -23 87 -6 22 -14
49 -18 60 -4 11 -14 40 -21 65 -7 25 -17 51 -23 59 -19 26 17 0 39 -28z m175
-61 c0 -5 5 -10 10 -10 6 0 10 -6 10 -14 0 -7 7 -19 15 -26 17 -14 20 -30 6
-30 -5 0 -12 8 -15 18 -4 10 -20 34 -36 52 -34 38 -44 78 -10 42 11 -12 20
-26 20 -32z m-6 -85 c10 -8 24 -12 30 -8 6 3 3 -2 -6 -12 -17 -18 -18 -18 -38
5 -30 34 -22 42 14 15z m-941 -49 c-19 -26 -73 -62 -73 -49 0 4 16 18 35 31
19 12 35 27 35 32 0 6 5 10 10 10 6 0 3 -11 -7 -24z m1037 7 c0 14 70 -82 70
-96 0 -13 -44 -57 -56 -57 -20 0 -84 107 -81 137 0 12 5 19 9 17 4 -3 16 -1
25 5 12 6 20 6 25 -2 4 -7 8 -8 8 -4z m-625 -36 c19 -91 61 -186 149 -342 23
-41 101 -142 148 -190 26 -27 48 -57 48 -67 0 -33 -46 -102 -107 -159 -60 -55
-62 -59 -43 -72 11 -8 17 -17 13 -20 -3 -4 5 -7 20 -7 31 0 77 -19 77 -32 0
-5 5 -6 10 -3 6 3 10 1 10 -4 0 -6 15 -11 34 -11 33 0 56 -23 36 -35 -6 -4
-10 -1 -10 5 0 6 -5 8 -10 5 -25 -15 6 -27 56 -22 38 4 56 2 64 -8 6 -8 18
-11 26 -8 8 3 14 0 14 -6 0 -6 10 -11 23 -11 18 -1 19 -2 6 -10 -19 -11 -91 9
-82 23 4 6 -5 8 -24 4 -16 -3 -52 0 -79 8 -27 7 -43 14 -36 14 10 1 10 4 -2
16 -15 16 -31 21 -23 8 6 -10 -41 -9 -68 1 -11 4 -32 12 -47 18 -26 9 -33 19
-29 41 0 4 -4 7 -9 7 -6 0 -10 -4 -10 -10 0 -5 -9 -10 -20 -10 -11 0 -20 5
-20 10 0 6 -4 10 -10 10 -13 0 -154 93 -206 135 -40 33 -134 152 -162 205
l-13 25 23 -25 c36 -39 112 -94 165 -121 26 -13 53 -30 61 -36 13 -12 59 -35
95 -47 23 -7 34 19 15 36 -7 7 -26 20 -43 28 -37 19 -125 102 -125 118 0 7 -4
12 -8 12 -5 0 -18 17 -30 39 -33 58 -29 210 8 306 5 11 15 39 24 63 32 84 69
161 77 157 4 -3 10 -20 14 -38z m322 -29 c-3 -8 -6 -5 -6 6 -1 11 2 17 5 13 3
-3 4 -12 1 -19z m3444 -61 c4 -29 10 -72 14 -97 l6 -45 -30 60 c-32 65 -37 95
-20 127 15 27 22 17 30 -45z m-272 32 c17 -6 31 -14 31 -17 0 -21 -139 -162
-213 -216 -23 -17 -43 -34 -45 -38 -2 -5 -8 -8 -14 -8 -5 0 -23 -9 -39 -21
-42 -30 -181 -99 -199 -99 -9 0 -20 -3 -26 -7 -5 -5 -2 -1 8 7 16 14 41 33
151 115 26 19 52 35 57 35 6 0 10 5 10 11 0 5 5 7 10 4 6 -3 10 0 10 7 1 7 31
34 67 61 71 51 72 65 1 19 -24 -16 -59 -38 -78 -48 -19 -10 -41 -26 -48 -34
-12 -13 -12 -13 -5 2 4 9 25 34 46 57 20 22 37 43 37 45 0 6 24 37 48 61 6 8
12 18 12 24 0 6 4 11 9 11 5 0 11 9 14 20 4 17 14 20 65 20 32 0 73 -5 91 -11z
m-3152 -36 c-3 -10 -5 -4 -5 12 0 17 2 24 5 18 2 -7 2 -21 0 -30z m3630 -85
c-2 -18 -4 -4 -4 32 0 36 2 50 4 33 2 -18 2 -48 0 -65z m-3231 60 c67 -78 75
-106 36 -127 -21 -11 -41 2 -94 67 -24 29 -41 68 -21 49 3 -4 12 2 20 13 18
26 35 25 59 -2z m2964 -141 c-19 -135 -39 -186 -117 -305 -52 -77 -58 -73 -15
10 60 112 88 205 113 363 l13 80 8 -43 c4 -24 3 -71 -2 -105z m475 68 c23 -31
38 -59 53 -95 5 -14 15 -38 21 -53 14 -35 15 -204 1 -212 -5 -3 -10 -15 -10
-26 0 -29 -18 -55 -95 -136 -71 -75 -160 -143 -189 -143 -9 0 -16 -4 -16 -10
0 -5 -11 -10 -25 -10 -14 0 -25 -4 -25 -10 0 -5 -11 -10 -25 -10 -14 0 -25 -4
-25 -10 0 -19 -29 -10 -35 11 -4 11 -5 22 -3 23 1 2 21 15 43 28 150 94 291
332 296 500 0 26 -16 157 -26 203 l-6 30 23 -26 c13 -15 32 -39 43 -54z
m-3796 13 l-2 -23 -4 23 c-2 12 -9 22 -14 22 -5 0 -9 7 -9 16 0 14 2 14 15 0
8 -8 14 -25 14 -38z m3244 -75 c-26 -176 -138 -398 -255 -510 -62 -59 -144
-113 -170 -113 -10 0 -18 -4 -18 -10 0 -5 -11 -10 -25 -10 -14 0 -25 -4 -25
-10 0 -5 -15 -10 -34 -10 -19 0 -38 5 -41 10 -3 6 -22 10 -42 10 l-36 0 23 20
c13 11 27 20 32 20 4 0 16 8 26 18 26 24 68 54 105 75 17 9 29 17 25 17 -3 0
47 53 111 118 89 91 125 135 153 191 32 62 151 210 169 211 3 0 4 -12 2 -27z
m-2747 -30 c24 -27 44 -51 44 -55 0 -12 -44 -21 -48 -9 -2 6 -9 11 -16 11 -6
0 -29 14 -50 32 l-39 32 23 18 c12 10 27 18 32 18 6 0 30 -21 54 -47z m-356
20 c-1 -21 -23 -101 -36 -130 -22 -50 -41 -96 -47 -113 -8 -22 -7 75 2 144 6
49 13 63 37 82 30 24 44 30 44 17z m88 -49 c31 -47 15 -70 -23 -34 -24 23 -32
50 -18 63 11 12 17 8 41 -29z m-983 -79 c15 -44 31 -82 34 -85 3 -3 13 -18 21
-35 35 -71 156 -234 182 -244 11 -4 58 -50 58 -56 0 -3 -8 -5 -17 -5 -15 0
-16 -2 -3 -10 9 -5 19 -5 25 0 13 11 58 -16 50 -30 -3 -4 1 -11 7 -13 9 -4 8
-6 -2 -6 -24 -1 -91 25 -83 32 3 4 -2 7 -13 7 -25 1 -56 24 -52 40 2 7 -4 15
-12 17 -13 4 -13 3 0 -6 13 -9 12 -11 -5 -11 -12 0 -47 25 -80 55 -32 30 -54
55 -49 55 5 0 -2 10 -17 23 -44 39 -73 118 -84 234 -4 34 4 128 10 121 1 -2
15 -39 30 -83z m1140 59 c34 -22 60 -75 43 -86 -7 -4 -15 -8 -18 -8 -6 0 -39
56 -51 88 -10 26 -6 27 26 6z m3038 -42 c3 -9 15 -42 26 -72 28 -76 41 -168
29 -200 -6 -14 -14 -34 -18 -45 -20 -56 -41 -96 -61 -119 -18 -21 -25 -23 -43
-14 -12 6 -23 14 -26 17 -3 4 -29 17 -59 29 -58 24 -102 28 -132 12 -13 -7
-19 -7 -19 0 0 5 4 10 8 10 12 0 175 162 191 189 7 13 21 39 32 58 10 18 19
42 19 53 0 10 5 22 10 25 6 3 10 24 10 45 0 30 3 38 14 34 8 -3 16 -13 19 -22z
m-2788 -29 c33 -22 -7 -16 -54 9 -28 15 -37 24 -29 29 12 8 27 0 83 -38z
m-331 -11 c26 -30 8 -28 -27 3 -16 14 -25 30 -22 35 6 10 10 7 49 -38z m-114
25 c0 -8 19 -27 43 -44 23 -17 53 -41 66 -54 22 -21 23 -23 6 -35 -19 -14 -34
-10 -87 23 -21 13 -42 23 -48 23 -23 0 -8 -31 30 -61 38 -31 39 -33 23 -51 -9
-10 -23 -18 -32 -18 -21 0 -96 38 -95 48 2 19 38 92 46 92 4 0 8 8 8 18 0 14
2 15 10 2 8 -13 10 -13 10 2 0 9 -4 18 -10 20 -14 5 0 48 16 48 8 0 14 -6 14
-13z m2840 -26 c0 -27 -226 -171 -267 -171 -7 0 -27 -9 -45 -20 -18 -11 -43
-20 -55 -20 -13 0 -23 -4 -23 -10 0 -5 -15 -10 -32 -10 l-33 0 29 15 c15 8 34
15 42 15 17 0 156 82 185 109 12 11 51 33 88 50 36 17 73 35 81 41 20 12 30
12 30 1z m-2566 -43 c7 -7 15 -21 19 -31 6 -16 4 -16 -23 3 -17 12 -28 26 -25
31 8 12 14 11 29 -3z m2033 -34 c-3 -3 -12 -4 -19 -1 -8 3 -5 6 6 6 11 1 17
-2 13 -5z m-2102 -64 c24 -16 50 -30 57 -30 7 -1 29 -9 48 -20 l35 -19 -32 -1
c-17 0 -35 5 -38 10 -3 6 -15 10 -26 10 -10 0 -19 4 -19 8 0 4 -20 14 -45 21
-50 15 -65 29 -44 42 19 12 15 13 64 -21z m-52 -64 c40 -18 79 -36 87 -40 8
-3 -1 -3 -20 0 -19 3 -55 8 -80 11 -25 3 -49 9 -54 14 -6 5 -21 9 -35 9 l-24
0 23 20 c13 11 25 20 27 20 3 0 37 -15 76 -34z m-242 -63 c26 -18 51 -33 58
-33 6 0 11 -4 11 -10 0 -5 5 -10 10 -10 6 0 29 -12 53 -27 23 -16 56 -33 72
-39 17 -7 29 -17 27 -24 -1 -6 2 -9 7 -6 11 7 81 -24 81 -36 0 -4 11 -8 24 -8
25 0 51 -22 39 -34 -4 -4 -1 -11 7 -17 12 -7 11 -8 -5 -6 -11 2 -28 8 -38 12
-10 4 -29 3 -43 -4 -31 -14 -37 -14 -29 -1 3 6 0 10 -7 10 -18 0 -40 -15 -38
-26 3 -20 -9 -44 -22 -44 -10 0 -10 2 1 9 11 7 7 10 -15 13 l-29 4 25 11 c22
10 22 12 5 12 -11 0 -26 -3 -33 -8 -13 -8 -74 7 -88 22 -4 4 -16 7 -26 7 -10
0 -18 5 -18 10 0 6 -11 10 -25 10 -14 0 -25 5 -25 10 0 6 -9 10 -19 10 -11 0
-23 5 -26 10 -3 6 -14 10 -24 10 -9 0 -36 9 -59 20 -22 11 -46 20 -52 20 -19
0 -10 16 33 58 59 58 77 78 77 86 0 14 25 34 35 28 6 -3 31 -21 56 -39z m487
40 c-10 -2 -26 -2 -35 0 -10 3 -2 5 17 5 19 0 27 -2 18 -5z m69 -19 c-3 -3
-12 -4 -19 -1 -8 3 -5 6 6 6 11 1 17 -2 13 -5z m1876 -1 c-7 -2 -19 -2 -25 0
-7 3 -2 5 12 5 14 0 19 -2 13 -5z m191 -38 c-20 -25 -39 -45 -43 -45 -3 0 -22
-14 -41 -31 -19 -17 -47 -38 -62 -47 -15 -9 -28 -20 -28 -24 0 -4 -9 -8 -19
-8 -11 0 -23 -4 -26 -10 -3 -5 -20 -10 -36 -10 -34 0 -64 -13 -96 -43 -13 -11
-23 -17 -23 -14 0 4 -10 1 -22 -7 -33 -20 -148 -42 -148 -28 1 15 72 42 98 37
25 -5 25 -5 5 4 -32 14 -29 23 5 15 20 -4 23 -3 12 5 -13 9 -12 12 5 25 11 8
28 13 37 10 13 -4 16 -1 12 10 -5 12 -2 15 12 9 12 -4 15 -3 10 5 -7 11 6 17
27 13 5 -1 6 3 3 8 -3 5 18 24 47 42 28 19 54 37 55 41 2 5 10 8 18 8 8 0 14
5 14 10 0 6 8 10 18 10 20 1 149 43 159 53 3 4 15 7 25 7 16 0 14 -7 -18 -45z
m386 -80 c0 -3 -13 -19 -30 -37 -16 -17 -30 -37 -30 -44 0 -7 -4 -14 -8 -16
-11 -4 -92 -113 -92 -123 0 -5 -6 -16 -14 -24 -8 -9 -21 -28 -29 -43 l-14 -28
-13 26 c-12 22 -12 27 0 36 12 8 11 9 -5 6 -14 -3 -29 7 -52 38 l-31 42 28 5
c15 4 34 12 41 19 8 8 39 26 69 41 30 16 80 45 110 67 53 37 70 46 70 35z
m170 -41 c14 -7 42 -28 63 -47 34 -32 37 -39 37 -90 0 -96 -6 -109 -109 -219
-53 -57 -114 -126 -137 -153 -43 -52 -121 -227 -143 -322 -7 -29 -19 -57 -26
-63 -7 -6 -37 -10 -66 -8 -77 4 -82 17 -74 193 10 235 31 309 139 485 59 96
181 238 209 243 30 5 77 -3 107 -19z m-2723 -10 c-3 -3 -12 -4 -19 -1 -8 3 -5
6 6 6 11 1 17 -2 13 -5z m119 -43 c5 -5 23 -12 39 -15 17 -3 44 -9 60 -15 l30
-9 -37 -1 c-20 -1 -40 4 -43 9 -3 6 -21 10 -39 10 -17 0 -36 4 -41 9 -6 5 -19
11 -30 14 -12 3 -6 5 16 6 19 0 39 -3 45 -8z m-995 -22 c35 -16 38 -19 14 -14
-16 3 -42 9 -57 12 -15 3 -25 9 -22 14 8 13 17 11 65 -12z m893 -31 c14 -23 5
-29 -32 -22 -18 4 -32 14 -35 26 -5 16 -1 19 25 16 17 -2 36 -11 42 -20z m394
15 c-21 -2 -57 -2 -80 0 -24 2 -7 4 37 4 44 0 63 -2 43 -4z m-295 -51 c20 -22
13 -32 -19 -32 -13 0 -26 -5 -30 -12 -5 -8 -2 -9 9 -5 11 4 17 1 17 -7 0 -21
-28 -27 -45 -10 -12 12 -13 20 -5 29 8 9 8 15 1 20 -16 9 10 34 35 35 11 0 28
-8 37 -18z m-123 -2 c0 -5 -4 -10 -9 -10 -6 0 -13 5 -16 10 -3 6 1 10 9 10 9
0 16 -4 16 -10z m32 -49 c-2 -16 1 -32 7 -35 17 -11 13 -26 -4 -20 -9 4 -15
19 -15 35 0 17 -6 32 -15 35 -11 5 -12 9 -2 19 18 19 34 0 29 -34z m118 -11
c-20 -13 -40 -13 -40 0 0 6 7 10 15 10 8 0 15 5 15 12 0 9 3 9 12 0 10 -10 10
-15 -2 -22z m108 5 c-3 -3 -9 2 -12 12 -6 14 -5 15 5 6 7 -7 10 -15 7 -18z
m-583 5 c3 -5 1 -10 -4 -10 -6 0 -11 5 -11 10 0 6 2 10 4 10 3 0 8 -4 11 -10z
m1893 -39 c9 -5 58 -11 107 -13 50 -3 84 -3 77 0 -18 6 -4 22 19 22 26 0 27
-49 2 -51 -17 -1 -17 -2 0 -6 25 -7 21 -18 -8 -19 -15 -1 -25 3 -25 12 0 8
-10 14 -23 14 -13 0 -28 5 -33 10 -6 6 -18 8 -28 4 -15 -6 -15 -7 1 -19 10 -8
15 -17 11 -21 -5 -4 -17 1 -28 11 -11 10 -20 13 -20 7 0 -17 -29 -15 -46 2
-12 13 -12 15 4 20 9 3 5 4 -10 2 -16 -2 -28 1 -28 5 0 5 6 9 13 10 6 0 3 4
-8 9 -11 5 -14 9 -7 9 7 1 21 -3 30 -8z m-41 -61 c-1 -11 -6 -20 -12 -20 -6 0
-11 9 -12 20 -1 11 4 20 12 20 8 0 13 -9 12 -20z m176 -15 c-3 -9 -8 -14 -10
-11 -3 3 -2 9 2 15 9 16 15 13 8 -4z m-1679 -38 c7 -6 6 -7 -4 -4 -8 2 -16 14
-17 28 -1 19 -1 20 4 4 3 -11 10 -24 17 -28z m116 8 c0 -21 -5 -19 -25 11 -16
25 -16 25 4 14 12 -6 21 -17 21 -25z m1321 12 c-10 -9 -11 -8 -5 6 3 10 9 15
12 12 3 -3 0 -11 -7 -18z m214 -17 c3 -5 1 -10 -4 -10 -6 0 -11 5 -11 10 0 6
2 10 4 10 3 0 8 -4 11 -10z m175 -53 c0 -13 -25 16 -33 38 -6 16 -3 15 13 -5
11 -14 20 -29 20 -33z m-430 39 c0 -3 -4 -8 -10 -11 -5 -3 -10 -1 -10 4 0 6 5
11 10 11 6 0 10 -2 10 -4z m-1340 -27 c0 -6 -4 -7 -10 -4 -5 3 -10 11 -10 16
0 6 5 7 10 4 6 -3 10 -11 10 -16z m290 -17 c0 -21 -2 -24 -10 -12 -13 20 -13
53 0 45 6 -3 10 -18 10 -33z m1423 7 c-4 -12 0 -25 8 -30 11 -6 11 -9 1 -9
-18 0 -33 43 -18 52 6 4 12 8 13 8 0 0 -1 -9 -4 -21z m-188 1 c3 -5 1 -10 -4
-10 -6 0 -11 5 -11 10 0 6 2 10 4 10 3 0 8 -4 11 -10z m-155 -10 c13 -8 13
-10 -2 -10 -9 0 -20 5 -23 10 -8 13 5 13 25 0z m-1220 -55 c0 -30 -4 -55 -9
-55 -5 0 -8 19 -6 43 2 23 4 48 4 55 1 6 3 12 6 12 3 0 5 -25 5 -55z m1540 51
c0 -2 -11 -6 -25 -8 -13 -3 -22 -1 -19 3 5 9 44 13 44 5z m-1709 -58 c80 -68
121 -146 123 -229 1 -66 -15 -94 -83 -146 -59 -46 -73 -43 -105 23 -84 171
-89 222 -40 387 9 30 42 19 105 -35z m1299 33 c-5 -11 -7 -28 -3 -38 5 -14 3
-16 -7 -6 -11 10 -11 18 -2 38 6 14 14 25 17 25 3 0 1 -9 -5 -19z m-1150 -22
c0 -6 -4 -7 -10 -4 -5 3 -10 11 -10 16 0 6 5 7 10 4 6 -3 10 -11 10 -16z m177
-26 c-3 -10 -5 -2 -5 17 0 19 2 27 5 18 2 -10 2 -26 0 -35z m1316 41 c12 -12
-6 -34 -23 -29 -12 4 -24 -2 -34 -17 -9 -12 -16 -17 -16 -10 0 7 12 24 28 37
29 26 35 29 45 19z m-1333 -35 c0 -5 -4 -9 -10 -9 -5 0 -10 7 -10 16 0 8 5 12
10 9 6 -3 10 -10 10 -16z m1007 -16 c-3 -10 -5 -4 -5 12 0 17 2 24 5 18 2 -7
2 -21 0 -30z m558 -2 c-6 -5 -25 10 -25 20 0 5 6 4 14 -3 8 -7 12 -15 11 -17z
m-437 -26 c-3 -3 -13 -2 -22 1 -14 5 -15 9 -4 15 13 8 36 -6 26 -16z m418 12
c4 -4 -2 -7 -14 -7 -11 0 -24 -5 -27 -10 -4 -6 -11 -8 -16 -5 -5 4 -9 -1 -9
-10 0 -9 -4 -14 -9 -10 -5 3 -12 -3 -14 -12 -4 -14 -5 -13 -6 4 -1 15 8 25 28
34 16 7 28 16 26 19 -5 9 33 6 41 -3z m-306 -42 c0 -26 -15 -41 -25 -25 -3 5
-1 10 4 10 6 0 11 7 11 16 0 8 -4 12 -10 9 -6 -3 -7 1 -4 9 9 22 24 10 24 -19z
m-131 11 c9 -10 8 -15 -2 -19 -8 -3 -13 3 -13 14 0 23 0 23 15 5z m181 4 c0
-5 -5 -10 -11 -10 -5 0 -7 5 -4 10 3 6 8 10 11 10 2 0 4 -4 4 -10z m-1250 -42
c0 -38 -5 -34 -13 10 -4 21 -3 31 3 27 6 -3 10 -20 10 -37z m1270 11 c0 -5
-14 -9 -31 -9 -16 0 -28 3 -26 8 7 10 57 12 57 1z m-1174 -35 c25 -32 28 -34
38 -17 15 25 55 22 78 -7 16 -20 19 -34 14 -80 -3 -30 -6 -101 -7 -158 l-2
-103 -26 3 c-19 2 -28 11 -35 33 -17 57 -28 84 -35 83 -19 -2 -32 6 -65 40
-28 28 -36 43 -33 62 3 14 10 60 17 103 7 42 16 77 21 77 4 0 20 -16 35 -36z
m844 26 c0 -5 -5 -10 -11 -10 -5 0 -7 5 -4 10 3 6 8 10 11 10 2 0 4 -4 4 -10z
m77 -42 c-3 -7 -5 -2 -5 12 0 14 2 19 5 13 2 -7 2 -19 0 -25z m20 10 c-3 -8
-6 -5 -6 6 -1 11 2 17 5 13 3 -3 4 -12 1 -19z m-1127 -13 c0 -8 -4 -15 -10
-15 -5 0 -7 7 -4 15 4 8 8 15 10 15 2 0 4 -7 4 -15z m1212 -15 c-2 -16 -8 -27
-13 -24 -5 3 -6 -2 -3 -10 3 -9 2 -16 -4 -16 -20 0 -20 28 1 54 11 14 21 26
22 26 1 0 0 -13 -3 -30z m-822 -66 c14 -7 45 -17 70 -24 106 -29 95 -15 98
-121 4 -122 -1 -139 -36 -139 -35 1 -132 24 -160 39 -21 11 -22 19 -22 126 0
110 6 156 19 138 3 -4 17 -13 31 -19z m-343 -16 c-3 -7 -5 -2 -5 12 0 14 2 19
5 13 2 -7 2 -19 0 -25z m-56 -11 c-8 -8 -11 -7 -11 4 0 20 13 34 18 19 3 -7
-1 -17 -7 -23z m1226 11 c-3 -8 -6 -5 -6 6 -1 11 2 17 5 13 3 -3 4 -12 1 -19z
m-1197 -47 c-4 -15 -15 -41 -24 -57 -15 -26 -16 -27 -10 -4 3 14 10 29 15 35
5 5 9 22 9 38 0 15 4 26 9 22 6 -3 6 -17 1 -34z m977 -13 c-3 -7 -5 -2 -5 12
0 14 2 19 5 13 2 -7 2 -19 0 -25z m-1047 -4 c0 -8 -6 -14 -13 -14 -7 0 -18 -9
-25 -20 -7 -12 -17 -18 -22 -15 -5 3 0 17 12 30 12 13 26 21 31 18 6 -4 8 0 4
11 -4 10 -3 15 3 11 6 -3 10 -13 10 -21z m27 -16 c-3 -8 -6 -5 -6 6 -1 11 2
17 5 13 3 -3 4 -12 1 -19z m1070 0 c-3 -8 -6 -5 -6 6 -1 11 2 17 5 13 3 -3 4
-12 1 -19z m-20 -20 c-3 -8 -6 -5 -6 6 -1 11 2 17 5 13 3 -3 4 -12 1 -19z
m-20 -20 c-3 -7 -5 -2 -5 12 0 14 2 19 5 13 2 -7 2 -19 0 -25z m-1147 -13 c0
-8 -7 -15 -15 -15 -13 0 -14 3 -3 15 16 18 18 18 18 0z m1167 -27 c-3 -7 -5
-2 -5 12 0 14 2 19 5 13 2 -7 2 -19 0 -25z m160 10 c-3 -8 -6 -5 -6 6 -1 11 2
17 5 13 3 -3 4 -12 1 -19z m-1242 2 c3 -6 -1 -7 -9 -4 -18 7 -21 14 -7 14 6 0
13 -4 16 -10z m1272 -12 c-3 -8 -6 -5 -6 6 -1 11 2 17 5 13 3 -3 4 -12 1 -19z
m-1311 -3 c16 -12 16 -14 3 -15 -9 0 -22 7 -29 15 -16 19 0 19 26 0z m-94 -22
c-6 -2 -10 -9 -7 -13 3 -5 1 -11 -5 -15 -5 -3 -10 0 -10 8 0 17 10 27 24 26 6
0 5 -3 -2 -6z m65 -9 c-3 -3 -12 -4 -19 -1 -8 3 -5 6 6 6 11 1 17 -2 13 -5z
m1323 -21 c0 -5 -5 -15 -10 -23 -7 -12 -9 -10 -7 8 1 19 17 33 17 15z m-60
-68 c9 -18 10 -29 3 -36 -13 -13 -43 15 -43 42 0 27 24 24 40 -6z m63 -94 c22
-37 21 -44 -3 -36 -10 3 -33 -1 -50 -10 -27 -14 -30 -14 -30 0 0 8 9 24 20 35
11 11 20 25 20 30 0 21 26 9 43 -19z"/>
<path d="M5861 5179 c0 -8 -7 -24 -15 -34 -14 -19 -15 -19 -35 -1 -23 21 -28
8 -11 -25 24 -43 77 -2 67 52 -2 13 -5 17 -6 8z"/>
<path d="M5948 4813 c7 -3 16 -2 19 1 4 3 -2 6 -13 5 -11 0 -14 -3 -6 -6z"/>
<path d="M5837 4803 c-16 -15 -5 -22 26 -16 47 8 57 23 16 23 -20 0 -39 -3
-42 -7z"/>
<path d="M5735 4780 c-17 -7 -16 -9 10 -9 17 0 37 4 45 9 12 8 10 10 -10 9
-14 0 -34 -4 -45 -9z"/>
<path d="M4921 4814 c0 -11 3 -14 6 -6 3 7 2 16 -1 19 -3 4 -6 -2 -5 -13z"/>
<path d="M4902 4770 c0 -14 2 -19 5 -12 2 6 2 18 0 25 -3 6 -5 1 -5 -13z"/>
<path d="M6241 5035 c0 -35 2 -37 11 -19 7 15 7 28 -1 40 -9 16 -10 12 -10
-21z"/>
<path d="M4504 4285 c-32 -63 -45 -98 -39 -104 6 -6 43 -13 83 -17 84 -8 81
-13 56 100 -19 84 -30 116 -42 116 -5 0 -31 -43 -58 -95z"/>
<path d="M4833 3683 c-8 -2 -13 -22 -13 -44 0 -26 4 -38 11 -34 5 4 8 12 6 18
-2 7 0 24 4 40 4 15 7 27 6 26 -1 0 -8 -3 -14 -6z"/>
<path d="M4553 3360 c-106 -8 -139 -25 -128 -69 3 -13 1 -45 -6 -70 -9 -37 -8
-64 5 -137 8 -51 20 -104 26 -120 l11 -28 21 32 c11 18 26 32 34 32 19 0 34
-33 34 -75 0 -40 32 -95 56 -95 8 0 14 -4 14 -8 0 -12 94 -32 152 -32 116 0
198 58 198 141 0 14 5 19 17 17 20 -4 28 -29 19 -61 -7 -28 -92 -117 -112
-117 -8 0 -14 -5 -14 -10 0 -13 46 12 81 43 32 28 101 131 117 172 15 40 34
174 27 186 -9 13 5 50 16 44 5 -4 9 -16 10 -28 1 -20 2 -20 9 3 26 80 5 106
-107 136 -122 34 -143 38 -143 28 0 -11 48 -34 70 -34 22 0 57 -27 47 -36 -4
-4 -17 -2 -30 4 -12 6 -67 10 -122 10 -106 -1 -206 19 -234 46 -14 15 -8 16
57 16 46 0 71 4 67 10 -7 11 -48 11 -192 0z m193 -175 c12 -9 43 -14 85 -15
50 0 70 -4 81 -17 23 -26 40 -89 32 -115 -4 -13 -7 -53 -8 -89 -1 -75 -16
-100 -75 -125 -38 -16 -157 -19 -166 -4 -3 6 -15 10 -25 10 -26 0 -77 31 -89
55 -9 17 -15 120 -11 179 0 10 10 38 21 61 29 63 110 94 155 60z"/>
<path d="M4808 3353 c12 -2 32 -2 45 0 12 2 2 4 -23 4 -25 0 -35 -2 -22 -4z"/>
<path d="M5355 2908 c-7 -16 -18 -22 -33 -21 -20 3 -21 0 -12 -17 6 -11 17
-20 25 -20 15 0 45 26 45 40 0 5 3 15 6 24 10 25 -20 19 -31 -6z"/>
<path d="M4840 2740 c0 -5 7 -7 15 -4 8 4 15 8 15 10 0 2 -7 4 -15 4 -8 0 -15
-4 -15 -10z"/>
<path d="M2880 2810 c0 -5 5 -10 11 -10 5 0 7 5 4 10 -3 6 -8 10 -11 10 -2 0
-4 -4 -4 -10z"/>
<path d="M2790 2749 c0 -5 5 -7 10 -4 6 3 10 8 10 11 0 2 -4 4 -10 4 -5 0 -10
-5 -10 -11z"/>
<path d="M3358 2733 c6 -2 18 -2 25 0 6 3 1 5 -13 5 -14 0 -19 -2 -12 -5z"/>
<path d="M3368 2713 c7 -3 16 -2 19 1 4 3 -2 6 -13 5 -11 0 -14 -3 -6 -6z"/>
<path d="M3630 2701 c0 -6 5 -13 10 -16 6 -3 10 1 10 9 0 9 -4 16 -10 16 -5 0
-10 -4 -10 -9z"/>
<path d="M6840 6929 c-30 -5 -86 -14 -125 -20 -38 -6 -89 -15 -112 -20 -23 -5
-56 -9 -73 -9 -28 0 -174 -37 -240 -60 -14 -5 -46 -11 -72 -14 -25 -2 -56 -10
-68 -16 -12 -6 -70 -27 -128 -45 -59 -19 -136 -46 -170 -59 l-64 -25 -66 33
c-85 43 -316 119 -407 135 -38 7 -84 17 -101 22 -17 5 -57 8 -90 8 l-59 -2 60
-7 c76 -10 258 -65 310 -94 50 -27 178 -127 171 -133 -4 -4 -107 41 -178 78
-10 5 -27 9 -37 9 -11 0 -23 5 -26 10 -3 6 -14 10 -23 10 -9 -1 27 -23 81 -51
53 -28 97 -55 97 -59 0 -5 -35 -11 -77 -15 -95 -8 -236 -41 -283 -66 -20 -10
-28 -18 -18 -19 9 0 19 4 22 9 3 5 20 11 38 14 18 3 65 12 103 21 40 10 119
18 185 18 98 2 125 -2 180 -21 259 -93 598 -342 764 -561 82 -108 116 -172
169 -325 46 -135 51 -155 86 -340 55 -286 66 -383 91 -810 5 -93 13 -197 18
-230 6 -54 8 -45 13 80 21 480 22 518 11 511 -7 -4 -13 -35 -13 -74 l-2 -67
-8 55 c-5 30 -13 111 -19 180 -5 69 -14 154 -19 190 -15 96 -27 158 -61 308
-11 50 -10 56 19 126 17 41 31 84 31 96 0 18 43 160 96 320 9 25 19 63 23 85
4 22 21 90 38 150 17 61 35 133 40 160 6 28 15 64 21 80 6 17 18 98 27 181 27
247 8 279 -155 253z m-1261 -204 c35 -13 84 -36 109 -51 l46 -27 -23 -18 c-32
-26 -40 -24 -92 24 -25 23 -62 51 -82 62 -34 18 -48 35 -29 35 5 0 37 -11 71
-25z"/>
<path d="M4605 6850 c-11 -5 -34 -9 -52 -9 -17 -1 -35 -6 -39 -12 -4 -7 0 -9
13 -5 11 4 98 7 194 8 155 1 170 3 134 14 -46 14 -220 17 -250 4z"/>
<path d="M4468 6813 c6 -2 18 -2 25 0 6 3 1 5 -13 5 -14 0 -19 -2 -12 -5z"/>
<path d="M4988 6813 c7 -3 16 -2 19 1 4 3 -2 6 -13 5 -11 0 -14 -3 -6 -6z"/>
<path d="M5270 6746 c0 -2 9 -6 20 -9 11 -3 20 -1 20 4 0 5 -9 9 -20 9 -11 0
-20 -2 -20 -4z"/>
<path d="M4793 6663 c9 -2 25 -2 35 0 9 3 1 5 -18 5 -19 0 -27 -2 -17 -5z"/>
<path d="M4993 6663 c37 -2 96 -2 130 0 34 2 4 3 -68 3 -71 0 -99 -1 -62 -3z"/>
<path d="M5228 6643 c12 -2 30 -2 40 0 9 3 -1 5 -23 4 -22 0 -30 -2 -17 -4z"/>
<path d="M5095 6510 c-3 -6 1 -7 9 -4 18 7 21 14 7 14 -6 0 -13 -4 -16 -10z"/>
<path d="M3940 5840 c0 -11 2 -20 4 -20 2 0 6 9 9 20 3 11 1 20 -4 20 -5 0 -9
-9 -9 -20z"/>
<path d="M3511 5787 c-7 -14 -11 -31 -8 -39 3 -7 6 -4 6 9 1 12 6 23 13 25 6
2 9 10 7 17 -3 8 -10 4 -18 -12z"/>
<path d="M3482 5710 c0 -14 2 -19 5 -12 2 6 2 18 0 25 -3 6 -5 1 -5 -13z"/>
<path d="M6091 5704 c0 -11 3 -14 6 -6 3 7 2 16 -1 19 -3 4 -6 -2 -5 -13z"/>
<path d="M3462 5665 c0 -16 2 -22 5 -12 2 9 2 23 0 30 -3 6 -5 -1 -5 -18z"/>
<path d="M6113 5635 c0 -22 2 -30 4 -17 2 12 2 30 0 40 -3 9 -5 -1 -4 -23z"/>
<path d="M3442 5620 c0 -14 2 -19 5 -12 2 6 2 18 0 25 -3 6 -5 1 -5 -13z"/>
<path d="M3420 5571 c0 -25 6 -27 13 -6 4 8 2 17 -3 20 -6 4 -10 -3 -10 -14z"/>
<path d="M6783 5555 c0 -22 2 -30 4 -17 2 12 2 30 0 40 -3 9 -5 -1 -4 -23z"/>
<path d="M3402 5510 c0 -14 2 -19 5 -12 2 6 2 18 0 25 -3 6 -5 1 -5 -13z"/>
<path d="M5672 5470 c0 -14 2 -19 5 -12 2 6 2 18 0 25 -3 6 -5 1 -5 -13z"/>
<path d="M6798 5418 c5 -114 9 -122 11 -20 0 50 -3 92 -7 92 -4 0 -6 -33 -4
-72z"/>
<path d="M3382 5450 c0 -14 2 -19 5 -12 2 6 2 18 0 25 -3 6 -5 1 -5 -13z"/>
<path d="M3041 5424 c0 -11 3 -14 6 -6 3 7 2 16 -1 19 -3 4 -6 -2 -5 -13z"/>
<path d="M5652 5420 c0 -14 2 -19 5 -12 2 6 2 18 0 25 -3 6 -5 1 -5 -13z"/>
<path d="M3941 5414 c0 -11 3 -14 6 -6 3 7 2 16 -1 19 -3 4 -6 -2 -5 -13z"/>
<path d="M3362 5390 c0 -14 2 -19 5 -12 2 6 2 18 0 25 -3 6 -5 1 -5 -13z"/>
<path d="M5632 5375 c0 -16 2 -22 5 -12 2 9 2 23 0 30 -3 6 -5 -1 -5 -18z"/>
<path d="M3345 5340 c-4 -12 -5 -24 -2 -27 3 -2 8 5 12 17 4 12 5 24 2 27 -3
2 -8 -5 -12 -17z"/>
<path d="M3331 5264 c0 -11 3 -14 6 -6 3 7 2 16 -1 19 -3 4 -6 -2 -5 -13z"/>
<path d="M3312 5190 c0 -14 2 -19 5 -12 2 6 2 18 0 25 -3 6 -5 1 -5 -13z"/>
<path d="M3981 5134 c0 -11 3 -14 6 -6 3 7 2 16 -1 19 -3 4 -6 -2 -5 -13z"/>
<path d="M6686 4908 c-7 -29 -8 -63 0 -56 6 7 16 78 10 78 -2 0 -6 -10 -10
-22z"/>
<path d="M6511 4804 c0 -11 3 -14 6 -6 3 7 2 16 -1 19 -3 4 -6 -2 -5 -13z"/>
<path d="M6818 4160 c2 -16 6 -30 8 -30 2 0 4 14 4 30 0 17 -4 30 -8 30 -5 0
-7 -13 -4 -30z"/>
<path d="M6842 4050 c0 -19 2 -27 5 -17 2 9 2 25 0 35 -3 9 -5 1 -5 -18z"/>
<path d="M7089 2485 c21 -19 41 -35 45 -35 4 0 -9 16 -28 35 -20 19 -40 35
-46 35 -5 0 7 -16 29 -35z"/>
<path d="M6890 2433 c0 -10 -11 -36 -25 -58 -36 -59 -33 -85 6 -40 25 29 38
35 70 35 31 0 46 -7 79 -38 40 -39 50 -35 28 13 -8 18 -14 22 -19 13 -6 -9
-12 -8 -26 5 -10 9 -35 23 -56 32 -25 10 -37 22 -37 35 0 11 -4 20 -10 20 -5
0 -10 -8 -10 -17z"/>
<path d="M3098 2433 c6 -2 18 -2 25 0 6 3 1 5 -13 5 -14 0 -19 -2 -12 -5z"/>
<path d="M3028 2404 c-15 -8 -32 -23 -38 -34 -16 -31 -12 -105 10 -156 12 -26
17 -51 13 -55 -5 -5 -37 -13 -71 -17 -37 -5 -70 -16 -83 -28 -19 -17 -21 -26
-15 -94 3 -41 7 -88 9 -105 2 -30 2 -30 -54 -33 l-57 -3 -26 -60 c-38 -88 -33
-147 16 -190 25 -23 23 -30 -22 -78 -36 -38 -53 -81 -31 -81 5 0 24 25 42 55
30 49 59 71 59 46 0 -19 120 -102 142 -99 18 2 13 8 -26 28 -59 30 -176 143
-176 170 0 5 -4 10 -10 10 -27 0 6 105 48 153 24 27 115 24 142 -5 11 -12 20
-26 20 -32 0 -5 3 -7 6 -4 3 4 -5 23 -18 45 -34 53 -48 110 -48 186 0 63 1 67
30 82 41 21 122 20 143 -2 10 -10 44 -59 76 -109 33 -51 64 -95 71 -99 25 -16
17 4 -25 61 -43 56 -72 109 -110 199 -9 22 -21 48 -27 59 -5 10 -12 43 -15 72
-6 52 -5 55 34 94 42 41 38 50 -9 24z"/>
<path d="M7176 2407 c2 -7 14 -19 27 -26 21 -13 21 -12 -2 13 -27 29 -33 32
-25 13z"/>
<path d="M7072 2260 c0 -14 2 -19 5 -12 2 6 2 18 0 25 -3 6 -5 1 -5 -13z"/>
<path d="M4458 2252 c-4 -14 0 -30 13 -45 14 -16 18 -18 19 -6 0 8 -4 19 -9
25 -5 5 -11 18 -13 29 -4 19 -4 19 -10 -3z"/>
<path d="M7345 2200 c4 -14 13 -47 21 -75 15 -51 12 -129 -7 -190 -5 -16 -25
-85 -44 -152 -19 -66 -53 -163 -75 -214 -28 -62 -38 -95 -31 -102 15 -15 38 9
46 46 4 18 25 77 47 131 50 127 99 315 100 386 1 52 -7 79 -49 165 -12 24 -13
25 -8 5z"/>
<path d="M2147 2068 c8 -86 -10 -161 -52 -220 -49 -67 -44 -69 15 -7 27 29 53
49 57 45 5 -4 7 -57 6 -117 -1 -60 0 -109 1 -109 2 0 12 24 21 53 27 79 22
185 -15 309 -16 56 -32 103 -35 106 -2 3 -2 -24 2 -60z"/>
<path d="M2670 2070 c0 -11 4 -20 9 -20 5 0 7 9 4 20 -3 11 -7 20 -9 20 -2 0
-4 -9 -4 -20z"/>
<path d="M2691 2024 c0 -11 3 -14 6 -6 3 7 2 16 -1 19 -3 4 -6 -2 -5 -13z"/>
<path d="M7110 1944 c-33 -42 -129 -138 -178 -176 -12 -10 -32 -18 -44 -18
-12 0 -19 -3 -15 -6 3 -3 25 -3 48 1 41 7 85 43 168 138 13 15 25 26 28 24 2
-2 -6 -25 -17 -51 -20 -48 -24 -111 -10 -156 7 -22 8 -20 9 16 1 22 10 69 21
105 12 35 25 78 30 95 12 36 13 74 3 74 -5 -1 -24 -21 -43 -46z"/>
<path d="M7261 1924 c0 -11 3 -14 6 -6 3 7 2 16 -1 19 -3 4 -6 -2 -5 -13z"/>
<path d="M2940 1771 c0 -6 4 -11 9 -11 5 0 12 -8 14 -17 4 -15 5 -15 6 -2 0 9
-6 22 -14 29 -10 9 -15 9 -15 1z"/>
<path d="M2980 1721 c0 -22 232 -251 254 -251 20 1 20 1 -4 21 -14 11 -76 70
-137 131 -62 61 -113 106 -113 99z"/>
<path d="M6838 1723 c7 -3 16 -2 19 1 4 3 -2 6 -13 5 -11 0 -14 -3 -6 -6z"/>
<path d="M6444 1675 c6 -19 14 -35 18 -35 10 0 10 1 -3 39 -15 43 -29 40 -15
-4z"/>
<path d="M6748 1703 c12 -2 32 -2 45 0 12 2 2 4 -23 4 -25 0 -35 -2 -22 -4z"/>
<path d="M4155 1646 c-124 -45 -141 -54 -122 -69 8 -7 20 -33 27 -60 13 -50
32 -62 81 -55 26 3 28 17 14 97 l-8 44 66 -6 67 -6 17 37 c9 20 19 40 21 45 9
18 -81 3 -163 -27z"/>
<path d="M7072 1614 c-1 -17 -8 -44 -16 -60 -25 -50 -30 -84 -13 -84 19 0 41
92 34 142 l-4 33 -1 -31z"/>
<path d="M5797 1605 c-3 -11 -15 -45 -27 -75 -24 -65 -24 -60 -5 -60 8 0 15 7
15 16 0 8 7 37 16 64 9 27 14 55 12 62 -3 8 -7 5 -11 -7z"/>
<path d="M4463 1565 c-13 -12 -23 -31 -23 -41 1 -24 23 -54 40 -54 8 0 4 8 -8
19 -27 23 -28 47 -2 54 12 3 20 14 20 26 0 25 1 25 -27 -4z"/>
<path d="M4882 1560 c0 -14 2 -19 5 -12 2 6 2 18 0 25 -3 6 -5 1 -5 -13z"/>
<path d="M4890 1505 c0 -8 5 -15 10 -15 6 0 10 7 10 15 0 8 -4 15 -10 15 -5 0
-10 -7 -10 -15z"/>
</g>
</svg>
